<?xml version="1.0" encoding="utf-8" standalone="no"?>
<!DOCTYPE svg PUBLIC "-//W3C//DTD SVG 1.1//EN"
  "http://www.w3.org/Graphics/SVG/1.1/DTD/svg11.dtd">
<svg xmlns:xlink="http://www.w3.org/1999/xlink" width="856.8pt" height="294.231889pt" viewBox="0 0 856.8 294.231889" xmlns="http://www.w3.org/2000/svg" version="1.1">
 <metadata>
  <rdf:RDF xmlns:dc="http://purl.org/dc/elements/1.1/" xmlns:cc="http://creativecommons.org/ns#" xmlns:rdf="http://www.w3.org/1999/02/22-rdf-syntax-ns#">
   <cc:Work>
    <dc:type rdf:resource="http://purl.org/dc/dcmitype/StillImage"/>
    <dc:date>2026-06-08T15:42:04.647920</dc:date>
    <dc:format>image/svg+xml</dc:format>
    <dc:creator>
     <cc:Agent>
      <dc:title>Matplotlib v3.10.3, https://matplotlib.org/</dc:title>
     </cc:Agent>
    </dc:creator>
   </cc:Work>
  </rdf:RDF>
 </metadata>
 <defs>
  <style type="text/css">*{stroke-linejoin: round; stroke-linecap: butt}</style>
 </defs>
 <g id="figure_1">
  <g id="patch_1">
   <path d="M 0 294.231889 
L 856.8 294.231889 
L 856.8 0 
L 0 0 
z
" style="fill: #ffffff"/>
  </g>
  <g id="axes_1">
   <g id="patch_2">
    <path d="M 87.228 103.764375 
L 314.676 103.764375 
Q 331.524 103.764375 331.524 98.565297 
L 331.524 67.370826 
Q 331.524 62.171748 314.676 62.171748 
L 87.228 62.171748 
Q 70.38 62.171748 70.38 67.370826 
L 70.38 98.565297 
Q 70.38 103.764375 87.228 103.764375 
z
" clip-path="url(#pb83dbe38c8)" style="fill: #ffffff; stroke: #404040; stroke-width: 1.4; stroke-linejoin: miter"/>
   </g>
   <g id="patch_3">
    <path d="M 87.228 155.755159 
L 314.676 155.755159 
Q 331.524 155.755159 331.524 150.556081 
L 331.524 119.36161 
Q 331.524 114.162532 314.676 114.162532 
L 87.228 114.162532 
Q 70.38 114.162532 70.38 119.36161 
L 70.38 150.556081 
Q 70.38 155.755159 87.228 155.755159 
z
" clip-path="url(#pb83dbe38c8)" style="fill: #ffffff; stroke: #404040; stroke-width: 1.4; stroke-linejoin: miter"/>
   </g>
   <g id="patch_4">
    <path d="M 87.228 207.745943 
L 314.676 207.745943 
Q 331.524 207.745943 331.524 202.546865 
L 331.524 171.352394 
Q 331.524 166.153316 314.676 166.153316 
L 87.228 166.153316 
Q 70.38 166.153316 70.38 171.352394 
L 70.38 202.546865 
Q 70.38 207.745943 87.228 207.745943 
z
" clip-path="url(#pb83dbe38c8)" style="fill: #ffffff; stroke: #404040; stroke-width: 1.4; stroke-linejoin: miter"/>
   </g>
   <g id="patch_5">
    <path d="M 87.228 259.736727 
L 314.676 259.736727 
Q 331.524 259.736727 331.524 254.537649 
L 331.524 223.343178 
Q 331.524 218.1441 314.676 218.1441 
L 87.228 218.1441 
Q 70.38 218.1441 70.38 223.343178 
L 70.38 254.537649 
Q 70.38 259.736727 87.228 259.736727 
z
" clip-path="url(#pb83dbe38c8)" style="fill: #ffffff; stroke: #404040; stroke-width: 1.4; stroke-linejoin: miter"/>
   </g>
   <g id="patch_6">
    <path d="M 508.428 103.764375 
L 735.876 103.764375 
Q 752.724 103.764375 752.724 98.565297 
L 752.724 67.370826 
Q 752.724 62.171748 735.876 62.171748 
L 508.428 62.171748 
Q 491.58 62.171748 491.58 67.370826 
L 491.58 98.565297 
Q 491.58 103.764375 508.428 103.764375 
z
" clip-path="url(#pb83dbe38c8)" style="fill: #ffffff; stroke: #404040; stroke-width: 1.4; stroke-linejoin: miter"/>
   </g>
   <g id="patch_7">
    <path d="M 508.428 155.755159 
L 735.876 155.755159 
Q 752.724 155.755159 752.724 150.556081 
L 752.724 119.36161 
Q 752.724 114.162532 735.876 114.162532 
L 508.428 114.162532 
Q 491.58 114.162532 491.58 119.36161 
L 491.58 150.556081 
Q 491.58 155.755159 508.428 155.755159 
z
" clip-path="url(#pb83dbe38c8)" style="fill: #ffffff; stroke: #404040; stroke-width: 1.4; stroke-linejoin: miter"/>
   </g>
   <g id="patch_8">
    <path d="M 508.428 207.745943 
L 735.876 207.745943 
Q 752.724 207.745943 752.724 202.546865 
L 752.724 171.352394 
Q 752.724 166.153316 735.876 166.153316 
L 508.428 166.153316 
Q 491.58 166.153316 491.58 171.352394 
L 491.58 202.546865 
Q 491.58 207.745943 508.428 207.745943 
z
" clip-path="url(#pb83dbe38c8)" style="fill: #ffffff; stroke: #404040; stroke-width: 1.4; stroke-linejoin: miter"/>
   </g>
   <g id="patch_9">
    <path d="M 508.428 259.736727 
L 735.876 259.736727 
Q 752.724 259.736727 752.724 254.537649 
L 752.724 223.343178 
Q 752.724 218.1441 735.876 218.1441 
L 508.428 218.1441 
Q 491.58 218.1441 491.58 223.343178 
L 491.58 254.537649 
Q 491.58 259.736727 508.428 259.736727 
z
" clip-path="url(#pb83dbe38c8)" style="fill: #ffffff; stroke: #404040; stroke-width: 1.4; stroke-linejoin: miter"/>
   </g>
   <g id="text_1">
    <!-- GLM architecture (baseline) -->
    <g transform="translate(123.425625 48.585993) scale(0.12 -0.12)">
     <defs>
      <path id="DejaVuSans-Bold-47" d="M 4781 347 
Q 4331 128 3847 18 
Q 3363 -91 2847 -91 
Q 1681 -91 1000 561 
Q 319 1213 319 2328 
Q 319 3456 1012 4103 
Q 1706 4750 2913 4750 
Q 3378 4750 3804 4662 
Q 4231 4575 4609 4403 
L 4609 3438 
Q 4219 3659 3833 3768 
Q 3447 3878 3059 3878 
Q 2341 3878 1952 3476 
Q 1563 3075 1563 2328 
Q 1563 1588 1938 1184 
Q 2313 781 3003 781 
Q 3191 781 3352 804 
Q 3513 828 3641 878 
L 3641 1784 
L 2906 1784 
L 2906 2591 
L 4781 2591 
L 4781 347 
z
" transform="scale(0.015625)"/>
      <path id="DejaVuSans-Bold-4c" d="M 588 4666 
L 1791 4666 
L 1791 909 
L 3903 909 
L 3903 0 
L 588 0 
L 588 4666 
z
" transform="scale(0.015625)"/>
      <path id="DejaVuSans-Bold-4d" d="M 588 4666 
L 2119 4666 
L 3181 2169 
L 4250 4666 
L 5778 4666 
L 5778 0 
L 4641 0 
L 4641 3413 
L 3566 897 
L 2803 897 
L 1728 3413 
L 1728 0 
L 588 0 
L 588 4666 
z
" transform="scale(0.015625)"/>
      <path id="DejaVuSans-Bold-20" transform="scale(0.015625)"/>
      <path id="DejaVuSans-Bold-61" d="M 2106 1575 
Q 1756 1575 1579 1456 
Q 1403 1338 1403 1106 
Q 1403 894 1545 773 
Q 1688 653 1941 653 
Q 2256 653 2472 879 
Q 2688 1106 2688 1447 
L 2688 1575 
L 2106 1575 
z
M 3816 1997 
L 3816 0 
L 2688 0 
L 2688 519 
Q 2463 200 2181 54 
Q 1900 -91 1497 -91 
Q 953 -91 614 226 
Q 275 544 275 1050 
Q 275 1666 698 1953 
Q 1122 2241 2028 2241 
L 2688 2241 
L 2688 2328 
Q 2688 2594 2478 2717 
Q 2269 2841 1825 2841 
Q 1466 2841 1156 2769 
Q 847 2697 581 2553 
L 581 3406 
Q 941 3494 1303 3539 
Q 1666 3584 2028 3584 
Q 2975 3584 3395 3211 
Q 3816 2838 3816 1997 
z
" transform="scale(0.015625)"/>
      <path id="DejaVuSans-Bold-72" d="M 3138 2547 
Q 2991 2616 2845 2648 
Q 2700 2681 2553 2681 
Q 2122 2681 1889 2404 
Q 1656 2128 1656 1613 
L 1656 0 
L 538 0 
L 538 3500 
L 1656 3500 
L 1656 2925 
Q 1872 3269 2151 3426 
Q 2431 3584 2822 3584 
Q 2878 3584 2943 3579 
Q 3009 3575 3134 3559 
L 3138 2547 
z
" transform="scale(0.015625)"/>
      <path id="DejaVuSans-Bold-63" d="M 3366 3391 
L 3366 2478 
Q 3138 2634 2908 2709 
Q 2678 2784 2431 2784 
Q 1963 2784 1702 2511 
Q 1441 2238 1441 1747 
Q 1441 1256 1702 982 
Q 1963 709 2431 709 
Q 2694 709 2930 787 
Q 3166 866 3366 1019 
L 3366 103 
Q 3103 6 2833 -42 
Q 2563 -91 2291 -91 
Q 1344 -91 809 395 
Q 275 881 275 1747 
Q 275 2613 809 3098 
Q 1344 3584 2291 3584 
Q 2566 3584 2833 3536 
Q 3100 3488 3366 3391 
z
" transform="scale(0.015625)"/>
      <path id="DejaVuSans-Bold-68" d="M 4056 2131 
L 4056 0 
L 2931 0 
L 2931 347 
L 2931 1625 
Q 2931 2084 2911 2256 
Q 2891 2428 2841 2509 
Q 2775 2619 2662 2680 
Q 2550 2741 2406 2741 
Q 2056 2741 1856 2470 
Q 1656 2200 1656 1722 
L 1656 0 
L 538 0 
L 538 4863 
L 1656 4863 
L 1656 2988 
Q 1909 3294 2193 3439 
Q 2478 3584 2822 3584 
Q 3428 3584 3742 3212 
Q 4056 2841 4056 2131 
z
" transform="scale(0.015625)"/>
      <path id="DejaVuSans-Bold-69" d="M 538 3500 
L 1656 3500 
L 1656 0 
L 538 0 
L 538 3500 
z
M 538 4863 
L 1656 4863 
L 1656 3950 
L 538 3950 
L 538 4863 
z
" transform="scale(0.015625)"/>
      <path id="DejaVuSans-Bold-74" d="M 1759 4494 
L 1759 3500 
L 2913 3500 
L 2913 2700 
L 1759 2700 
L 1759 1216 
Q 1759 972 1856 886 
Q 1953 800 2241 800 
L 2816 800 
L 2816 0 
L 1856 0 
Q 1194 0 917 276 
Q 641 553 641 1216 
L 641 2700 
L 84 2700 
L 84 3500 
L 641 3500 
L 641 4494 
L 1759 4494 
z
" transform="scale(0.015625)"/>
      <path id="DejaVuSans-Bold-65" d="M 4031 1759 
L 4031 1441 
L 1416 1441 
Q 1456 1047 1700 850 
Q 1944 653 2381 653 
Q 2734 653 3104 758 
Q 3475 863 3866 1075 
L 3866 213 
Q 3469 63 3072 -14 
Q 2675 -91 2278 -91 
Q 1328 -91 801 392 
Q 275 875 275 1747 
Q 275 2603 792 3093 
Q 1309 3584 2216 3584 
Q 3041 3584 3536 3087 
Q 4031 2591 4031 1759 
z
M 2881 2131 
Q 2881 2450 2695 2645 
Q 2509 2841 2209 2841 
Q 1884 2841 1681 2658 
Q 1478 2475 1428 2131 
L 2881 2131 
z
" transform="scale(0.015625)"/>
      <path id="DejaVuSans-Bold-75" d="M 500 1363 
L 500 3500 
L 1625 3500 
L 1625 3150 
Q 1625 2866 1622 2436 
Q 1619 2006 1619 1863 
Q 1619 1441 1641 1255 
Q 1663 1069 1716 984 
Q 1784 875 1895 815 
Q 2006 756 2150 756 
Q 2500 756 2700 1025 
Q 2900 1294 2900 1772 
L 2900 3500 
L 4019 3500 
L 4019 0 
L 2900 0 
L 2900 506 
Q 2647 200 2364 54 
Q 2081 -91 1741 -91 
Q 1134 -91 817 281 
Q 500 653 500 1363 
z
" transform="scale(0.015625)"/>
      <path id="DejaVuSans-Bold-28" d="M 2413 -844 
L 1484 -844 
Q 1006 -72 778 623 
Q 550 1319 550 2003 
Q 550 2688 779 3389 
Q 1009 4091 1484 4856 
L 2413 4856 
Q 2013 4116 1813 3408 
Q 1613 2700 1613 2009 
Q 1613 1319 1811 609 
Q 2009 -100 2413 -844 
z
" transform="scale(0.015625)"/>
      <path id="DejaVuSans-Bold-62" d="M 2400 722 
Q 2759 722 2948 984 
Q 3138 1247 3138 1747 
Q 3138 2247 2948 2509 
Q 2759 2772 2400 2772 
Q 2041 2772 1848 2508 
Q 1656 2244 1656 1747 
Q 1656 1250 1848 986 
Q 2041 722 2400 722 
z
M 1656 2988 
Q 1888 3294 2169 3439 
Q 2450 3584 2816 3584 
Q 3463 3584 3878 3070 
Q 4294 2556 4294 1747 
Q 4294 938 3878 423 
Q 3463 -91 2816 -91 
Q 2450 -91 2169 54 
Q 1888 200 1656 506 
L 1656 0 
L 538 0 
L 538 4863 
L 1656 4863 
L 1656 2988 
z
" transform="scale(0.015625)"/>
      <path id="DejaVuSans-Bold-73" d="M 3272 3391 
L 3272 2541 
Q 2913 2691 2578 2766 
Q 2244 2841 1947 2841 
Q 1628 2841 1473 2761 
Q 1319 2681 1319 2516 
Q 1319 2381 1436 2309 
Q 1553 2238 1856 2203 
L 2053 2175 
Q 2913 2066 3209 1816 
Q 3506 1566 3506 1031 
Q 3506 472 3093 190 
Q 2681 -91 1863 -91 
Q 1516 -91 1145 -36 
Q 775 19 384 128 
L 384 978 
Q 719 816 1070 734 
Q 1422 653 1784 653 
Q 2113 653 2278 743 
Q 2444 834 2444 1013 
Q 2444 1163 2330 1236 
Q 2216 1309 1875 1350 
L 1678 1375 
Q 931 1469 631 1722 
Q 331 1975 331 2491 
Q 331 3047 712 3315 
Q 1094 3584 1881 3584 
Q 2191 3584 2531 3537 
Q 2872 3491 3272 3391 
z
" transform="scale(0.015625)"/>
      <path id="DejaVuSans-Bold-6c" d="M 538 4863 
L 1656 4863 
L 1656 0 
L 538 0 
L 538 4863 
z
" transform="scale(0.015625)"/>
      <path id="DejaVuSans-Bold-6e" d="M 4056 2131 
L 4056 0 
L 2931 0 
L 2931 347 
L 2931 1631 
Q 2931 2084 2911 2256 
Q 2891 2428 2841 2509 
Q 2775 2619 2662 2680 
Q 2550 2741 2406 2741 
Q 2056 2741 1856 2470 
Q 1656 2200 1656 1722 
L 1656 0 
L 538 0 
L 538 3500 
L 1656 3500 
L 1656 2988 
Q 1909 3294 2193 3439 
Q 2478 3584 2822 3584 
Q 3428 3584 3742 3212 
Q 4056 2841 4056 2131 
z
" transform="scale(0.015625)"/>
      <path id="DejaVuSans-Bold-29" d="M 513 -844 
Q 913 -100 1113 609 
Q 1313 1319 1313 2009 
Q 1313 2700 1113 3408 
Q 913 4116 513 4856 
L 1441 4856 
Q 1916 4091 2145 3389 
Q 2375 2688 2375 2003 
Q 2375 1319 2147 623 
Q 1919 -72 1441 -844 
L 513 -844 
z
" transform="scale(0.015625)"/>
     </defs>
     <use xlink:href="#DejaVuSans-Bold-47"/>
     <use xlink:href="#DejaVuSans-Bold-4c" transform="translate(82.080078 0)"/>
     <use xlink:href="#DejaVuSans-Bold-4d" transform="translate(145.800781 0)"/>
     <use xlink:href="#DejaVuSans-Bold-20" transform="translate(245.3125 0)"/>
     <use xlink:href="#DejaVuSans-Bold-61" transform="translate(280.126953 0)"/>
     <use xlink:href="#DejaVuSans-Bold-72" transform="translate(347.607422 0)"/>
     <use xlink:href="#DejaVuSans-Bold-63" transform="translate(396.923828 0)"/>
     <use xlink:href="#DejaVuSans-Bold-68" transform="translate(456.201172 0)"/>
     <use xlink:href="#DejaVuSans-Bold-69" transform="translate(527.392578 0)"/>
     <use xlink:href="#DejaVuSans-Bold-74" transform="translate(561.669922 0)"/>
     <use xlink:href="#DejaVuSans-Bold-65" transform="translate(609.472656 0)"/>
     <use xlink:href="#DejaVuSans-Bold-63" transform="translate(677.294922 0)"/>
     <use xlink:href="#DejaVuSans-Bold-74" transform="translate(736.572266 0)"/>
     <use xlink:href="#DejaVuSans-Bold-75" transform="translate(784.375 0)"/>
     <use xlink:href="#DejaVuSans-Bold-72" transform="translate(855.566406 0)"/>
     <use xlink:href="#DejaVuSans-Bold-65" transform="translate(904.882812 0)"/>
     <use xlink:href="#DejaVuSans-Bold-20" transform="translate(972.705078 0)"/>
     <use xlink:href="#DejaVuSans-Bold-28" transform="translate(1007.519531 0)"/>
     <use xlink:href="#DejaVuSans-Bold-62" transform="translate(1053.222656 0)"/>
     <use xlink:href="#DejaVuSans-Bold-61" transform="translate(1124.804688 0)"/>
     <use xlink:href="#DejaVuSans-Bold-73" transform="translate(1192.285156 0)"/>
     <use xlink:href="#DejaVuSans-Bold-65" transform="translate(1251.806641 0)"/>
     <use xlink:href="#DejaVuSans-Bold-6c" transform="translate(1319.628906 0)"/>
     <use xlink:href="#DejaVuSans-Bold-69" transform="translate(1353.90625 0)"/>
     <use xlink:href="#DejaVuSans-Bold-6e" transform="translate(1388.183594 0)"/>
     <use xlink:href="#DejaVuSans-Bold-65" transform="translate(1459.375 0)"/>
     <use xlink:href="#DejaVuSans-Bold-29" transform="translate(1527.197266 0)"/>
    </g>
   </g>
   <g id="text_2">
    <!-- FFNN architecture (challenger) -->
    <g transform="translate(533.888438 48.539118) scale(0.12 -0.12)">
     <defs>
      <path id="DejaVuSans-Bold-46" d="M 588 4666 
L 3834 4666 
L 3834 3756 
L 1791 3756 
L 1791 2888 
L 3713 2888 
L 3713 1978 
L 1791 1978 
L 1791 0 
L 588 0 
L 588 4666 
z
" transform="scale(0.015625)"/>
      <path id="DejaVuSans-Bold-4e" d="M 588 4666 
L 1931 4666 
L 3628 1466 
L 3628 4666 
L 4769 4666 
L 4769 0 
L 3425 0 
L 1728 3200 
L 1728 0 
L 588 0 
L 588 4666 
z
" transform="scale(0.015625)"/>
      <path id="DejaVuSans-Bold-67" d="M 2919 594 
Q 2688 288 2409 144 
Q 2131 0 1766 0 
Q 1125 0 706 504 
Q 288 1009 288 1791 
Q 288 2575 706 3076 
Q 1125 3578 1766 3578 
Q 2131 3578 2409 3434 
Q 2688 3291 2919 2981 
L 2919 3500 
L 4044 3500 
L 4044 353 
Q 4044 -491 3511 -936 
Q 2978 -1381 1966 -1381 
Q 1638 -1381 1331 -1331 
Q 1025 -1281 716 -1178 
L 716 -306 
Q 1009 -475 1290 -558 
Q 1572 -641 1856 -641 
Q 2406 -641 2662 -400 
Q 2919 -159 2919 353 
L 2919 594 
z
M 2181 2772 
Q 1834 2772 1640 2515 
Q 1447 2259 1447 1791 
Q 1447 1309 1634 1061 
Q 1822 813 2181 813 
Q 2531 813 2725 1069 
Q 2919 1325 2919 1791 
Q 2919 2259 2725 2515 
Q 2531 2772 2181 2772 
z
" transform="scale(0.015625)"/>
     </defs>
     <use xlink:href="#DejaVuSans-Bold-46"/>
     <use xlink:href="#DejaVuSans-Bold-46" transform="translate(68.310547 0)"/>
     <use xlink:href="#DejaVuSans-Bold-4e" transform="translate(136.621094 0)"/>
     <use xlink:href="#DejaVuSans-Bold-4e" transform="translate(220.3125 0)"/>
     <use xlink:href="#DejaVuSans-Bold-20" transform="translate(304.003906 0)"/>
     <use xlink:href="#DejaVuSans-Bold-61" transform="translate(338.818359 0)"/>
     <use xlink:href="#DejaVuSans-Bold-72" transform="translate(406.298828 0)"/>
     <use xlink:href="#DejaVuSans-Bold-63" transform="translate(455.615234 0)"/>
     <use xlink:href="#DejaVuSans-Bold-68" transform="translate(514.892578 0)"/>
     <use xlink:href="#DejaVuSans-Bold-69" transform="translate(586.083984 0)"/>
     <use xlink:href="#DejaVuSans-Bold-74" transform="translate(620.361328 0)"/>
     <use xlink:href="#DejaVuSans-Bold-65" transform="translate(668.164062 0)"/>
     <use xlink:href="#DejaVuSans-Bold-63" transform="translate(735.986328 0)"/>
     <use xlink:href="#DejaVuSans-Bold-74" transform="translate(795.263672 0)"/>
     <use xlink:href="#DejaVuSans-Bold-75" transform="translate(843.066406 0)"/>
     <use xlink:href="#DejaVuSans-Bold-72" transform="translate(914.257812 0)"/>
     <use xlink:href="#DejaVuSans-Bold-65" transform="translate(963.574219 0)"/>
     <use xlink:href="#DejaVuSans-Bold-20" transform="translate(1031.396484 0)"/>
     <use xlink:href="#DejaVuSans-Bold-28" transform="translate(1066.210938 0)"/>
     <use xlink:href="#DejaVuSans-Bold-63" transform="translate(1111.914062 0)"/>
     <use xlink:href="#DejaVuSans-Bold-68" transform="translate(1171.191406 0)"/>
     <use xlink:href="#DejaVuSans-Bold-61" transform="translate(1242.382812 0)"/>
     <use xlink:href="#DejaVuSans-Bold-6c" transform="translate(1309.863281 0)"/>
     <use xlink:href="#DejaVuSans-Bold-6c" transform="translate(1344.140625 0)"/>
     <use xlink:href="#DejaVuSans-Bold-65" transform="translate(1378.417969 0)"/>
     <use xlink:href="#DejaVuSans-Bold-6e" transform="translate(1446.240234 0)"/>
     <use xlink:href="#DejaVuSans-Bold-67" transform="translate(1517.431641 0)"/>
     <use xlink:href="#DejaVuSans-Bold-65" transform="translate(1589.013672 0)"/>
     <use xlink:href="#DejaVuSans-Bold-72" transform="translate(1656.835938 0)"/>
     <use xlink:href="#DejaVuSans-Bold-29" transform="translate(1706.152344 0)"/>
    </g>
   </g>
   <g id="text_3">
    <!-- Inputs -->
    <g style="fill: #1f1f1f" transform="translate(183.028562 80.089468) scale(0.1 -0.1)">
     <defs>
      <path id="DejaVuSans-Bold-49" d="M 588 4666 
L 1791 4666 
L 1791 0 
L 588 0 
L 588 4666 
z
" transform="scale(0.015625)"/>
      <path id="DejaVuSans-Bold-70" d="M 1656 506 
L 1656 -1331 
L 538 -1331 
L 538 3500 
L 1656 3500 
L 1656 2988 
Q 1888 3294 2169 3439 
Q 2450 3584 2816 3584 
Q 3463 3584 3878 3070 
Q 4294 2556 4294 1747 
Q 4294 938 3878 423 
Q 3463 -91 2816 -91 
Q 2450 -91 2169 54 
Q 1888 200 1656 506 
z
M 2400 2772 
Q 2041 2772 1848 2508 
Q 1656 2244 1656 1747 
Q 1656 1250 1848 986 
Q 2041 722 2400 722 
Q 2759 722 2948 984 
Q 3138 1247 3138 1747 
Q 3138 2247 2948 2509 
Q 2759 2772 2400 2772 
z
" transform="scale(0.015625)"/>
     </defs>
     <use xlink:href="#DejaVuSans-Bold-49"/>
     <use xlink:href="#DejaVuSans-Bold-6e" transform="translate(37.207031 0)"/>
     <use xlink:href="#DejaVuSans-Bold-70" transform="translate(108.398438 0)"/>
     <use xlink:href="#DejaVuSans-Bold-75" transform="translate(179.980469 0)"/>
     <use xlink:href="#DejaVuSans-Bold-74" transform="translate(251.171875 0)"/>
     <use xlink:href="#DejaVuSans-Bold-73" transform="translate(298.974609 0)"/>
    </g>
    <!-- (numeric + categorical) -->
    <g style="fill: #1f1f1f" transform="translate(134.480906 91.28728) scale(0.1 -0.1)">
     <defs>
      <path id="DejaVuSans-Bold-6d" d="M 3781 2919 
Q 3994 3244 4286 3414 
Q 4578 3584 4928 3584 
Q 5531 3584 5847 3212 
Q 6163 2841 6163 2131 
L 6163 0 
L 5038 0 
L 5038 1825 
Q 5041 1866 5042 1909 
Q 5044 1953 5044 2034 
Q 5044 2406 4934 2573 
Q 4825 2741 4581 2741 
Q 4263 2741 4089 2478 
Q 3916 2216 3909 1719 
L 3909 0 
L 2784 0 
L 2784 1825 
Q 2784 2406 2684 2573 
Q 2584 2741 2328 2741 
Q 2006 2741 1831 2477 
Q 1656 2213 1656 1722 
L 1656 0 
L 531 0 
L 531 3500 
L 1656 3500 
L 1656 2988 
Q 1863 3284 2130 3434 
Q 2397 3584 2719 3584 
Q 3081 3584 3359 3409 
Q 3638 3234 3781 2919 
z
" transform="scale(0.015625)"/>
      <path id="DejaVuSans-Bold-2b" d="M 3053 4013 
L 3053 2375 
L 4684 2375 
L 4684 1638 
L 3053 1638 
L 3053 0 
L 2309 0 
L 2309 1638 
L 678 1638 
L 678 2375 
L 2309 2375 
L 2309 4013 
L 3053 4013 
z
" transform="scale(0.015625)"/>
      <path id="DejaVuSans-Bold-6f" d="M 2203 2784 
Q 1831 2784 1636 2517 
Q 1441 2250 1441 1747 
Q 1441 1244 1636 976 
Q 1831 709 2203 709 
Q 2569 709 2762 976 
Q 2956 1244 2956 1747 
Q 2956 2250 2762 2517 
Q 2569 2784 2203 2784 
z
M 2203 3584 
Q 3106 3584 3614 3096 
Q 4122 2609 4122 1747 
Q 4122 884 3614 396 
Q 3106 -91 2203 -91 
Q 1297 -91 786 396 
Q 275 884 275 1747 
Q 275 2609 786 3096 
Q 1297 3584 2203 3584 
z
" transform="scale(0.015625)"/>
     </defs>
     <use xlink:href="#DejaVuSans-Bold-28"/>
     <use xlink:href="#DejaVuSans-Bold-6e" transform="translate(45.703125 0)"/>
     <use xlink:href="#DejaVuSans-Bold-75" transform="translate(116.894531 0)"/>
     <use xlink:href="#DejaVuSans-Bold-6d" transform="translate(188.085938 0)"/>
     <use xlink:href="#DejaVuSans-Bold-65" transform="translate(292.285156 0)"/>
     <use xlink:href="#DejaVuSans-Bold-72" transform="translate(360.107422 0)"/>
     <use xlink:href="#DejaVuSans-Bold-69" transform="translate(409.423828 0)"/>
     <use xlink:href="#DejaVuSans-Bold-63" transform="translate(443.701172 0)"/>
     <use xlink:href="#DejaVuSans-Bold-20" transform="translate(502.978516 0)"/>
     <use xlink:href="#DejaVuSans-Bold-2b" transform="translate(537.792969 0)"/>
     <use xlink:href="#DejaVuSans-Bold-20" transform="translate(621.582031 0)"/>
     <use xlink:href="#DejaVuSans-Bold-63" transform="translate(656.396484 0)"/>
     <use xlink:href="#DejaVuSans-Bold-61" transform="translate(715.673828 0)"/>
     <use xlink:href="#DejaVuSans-Bold-74" transform="translate(783.154297 0)"/>
     <use xlink:href="#DejaVuSans-Bold-65" transform="translate(830.957031 0)"/>
     <use xlink:href="#DejaVuSans-Bold-67" transform="translate(898.779297 0)"/>
     <use xlink:href="#DejaVuSans-Bold-6f" transform="translate(970.361328 0)"/>
     <use xlink:href="#DejaVuSans-Bold-72" transform="translate(1039.0625 0)"/>
     <use xlink:href="#DejaVuSans-Bold-69" transform="translate(1088.378906 0)"/>
     <use xlink:href="#DejaVuSans-Bold-63" transform="translate(1122.65625 0)"/>
     <use xlink:href="#DejaVuSans-Bold-61" transform="translate(1181.933594 0)"/>
     <use xlink:href="#DejaVuSans-Bold-6c" transform="translate(1249.414062 0)"/>
     <use xlink:href="#DejaVuSans-Bold-29" transform="translate(1283.691406 0)"/>
    </g>
   </g>
   <g id="text_4">
    <!-- One-hot encoding -->
    <g style="fill: #1f1f1f" transform="translate(150.769187 132.041189) scale(0.1 -0.1)">
     <defs>
      <path id="DejaVuSans-Bold-4f" d="M 2719 3878 
Q 2169 3878 1866 3472 
Q 1563 3066 1563 2328 
Q 1563 1594 1866 1187 
Q 2169 781 2719 781 
Q 3272 781 3575 1187 
Q 3878 1594 3878 2328 
Q 3878 3066 3575 3472 
Q 3272 3878 2719 3878 
z
M 2719 4750 
Q 3844 4750 4481 4106 
Q 5119 3463 5119 2328 
Q 5119 1197 4481 553 
Q 3844 -91 2719 -91 
Q 1597 -91 958 553 
Q 319 1197 319 2328 
Q 319 3463 958 4106 
Q 1597 4750 2719 4750 
z
" transform="scale(0.015625)"/>
      <path id="DejaVuSans-Bold-2d" d="M 347 2297 
L 2309 2297 
L 2309 1388 
L 347 1388 
L 347 2297 
z
" transform="scale(0.015625)"/>
      <path id="DejaVuSans-Bold-64" d="M 2919 2988 
L 2919 4863 
L 4044 4863 
L 4044 0 
L 2919 0 
L 2919 506 
Q 2688 197 2409 53 
Q 2131 -91 1766 -91 
Q 1119 -91 703 423 
Q 288 938 288 1747 
Q 288 2556 703 3070 
Q 1119 3584 1766 3584 
Q 2128 3584 2408 3439 
Q 2688 3294 2919 2988 
z
M 2181 722 
Q 2541 722 2730 984 
Q 2919 1247 2919 1747 
Q 2919 2247 2730 2509 
Q 2541 2772 2181 2772 
Q 1825 2772 1636 2509 
Q 1447 2247 1447 1747 
Q 1447 1247 1636 984 
Q 1825 722 2181 722 
z
" transform="scale(0.015625)"/>
     </defs>
     <use xlink:href="#DejaVuSans-Bold-4f"/>
     <use xlink:href="#DejaVuSans-Bold-6e" transform="translate(85.009766 0)"/>
     <use xlink:href="#DejaVuSans-Bold-65" transform="translate(156.201172 0)"/>
     <use xlink:href="#DejaVuSans-Bold-2d" transform="translate(224.023438 0)"/>
     <use xlink:href="#DejaVuSans-Bold-68" transform="translate(265.527344 0)"/>
     <use xlink:href="#DejaVuSans-Bold-6f" transform="translate(336.71875 0)"/>
     <use xlink:href="#DejaVuSans-Bold-74" transform="translate(405.419922 0)"/>
     <use xlink:href="#DejaVuSans-Bold-20" transform="translate(453.222656 0)"/>
     <use xlink:href="#DejaVuSans-Bold-65" transform="translate(488.037109 0)"/>
     <use xlink:href="#DejaVuSans-Bold-6e" transform="translate(555.859375 0)"/>
     <use xlink:href="#DejaVuSans-Bold-63" transform="translate(627.050781 0)"/>
     <use xlink:href="#DejaVuSans-Bold-6f" transform="translate(686.328125 0)"/>
     <use xlink:href="#DejaVuSans-Bold-64" transform="translate(755.029297 0)"/>
     <use xlink:href="#DejaVuSans-Bold-69" transform="translate(826.611328 0)"/>
     <use xlink:href="#DejaVuSans-Bold-6e" transform="translate(860.888672 0)"/>
     <use xlink:href="#DejaVuSans-Bold-67" transform="translate(932.080078 0)"/>
    </g>
    <!-- (+ scaling) -->
    <g style="fill: #1f1f1f" transform="translate(170.57075 143.317127) scale(0.1 -0.1)">
     <use xlink:href="#DejaVuSans-Bold-28"/>
     <use xlink:href="#DejaVuSans-Bold-2b" transform="translate(45.703125 0)"/>
     <use xlink:href="#DejaVuSans-Bold-20" transform="translate(129.492188 0)"/>
     <use xlink:href="#DejaVuSans-Bold-73" transform="translate(164.306641 0)"/>
     <use xlink:href="#DejaVuSans-Bold-63" transform="translate(223.828125 0)"/>
     <use xlink:href="#DejaVuSans-Bold-61" transform="translate(283.105469 0)"/>
     <use xlink:href="#DejaVuSans-Bold-6c" transform="translate(350.585938 0)"/>
     <use xlink:href="#DejaVuSans-Bold-69" transform="translate(384.863281 0)"/>
     <use xlink:href="#DejaVuSans-Bold-6e" transform="translate(419.140625 0)"/>
     <use xlink:href="#DejaVuSans-Bold-67" transform="translate(490.332031 0)"/>
     <use xlink:href="#DejaVuSans-Bold-29" transform="translate(561.914062 0)"/>
    </g>
   </g>
   <g id="text_5">
    <!-- Linear predictor -->
    <g style="fill: #1f1f1f" transform="translate(155.537156 184.028536) scale(0.1 -0.1)">
     <use xlink:href="#DejaVuSans-Bold-4c"/>
     <use xlink:href="#DejaVuSans-Bold-69" transform="translate(63.720703 0)"/>
     <use xlink:href="#DejaVuSans-Bold-6e" transform="translate(97.998047 0)"/>
     <use xlink:href="#DejaVuSans-Bold-65" transform="translate(169.189453 0)"/>
     <use xlink:href="#DejaVuSans-Bold-61" transform="translate(237.011719 0)"/>
     <use xlink:href="#DejaVuSans-Bold-72" transform="translate(304.492188 0)"/>
     <use xlink:href="#DejaVuSans-Bold-20" transform="translate(353.808594 0)"/>
     <use xlink:href="#DejaVuSans-Bold-70" transform="translate(388.623047 0)"/>
     <use xlink:href="#DejaVuSans-Bold-72" transform="translate(460.205078 0)"/>
     <use xlink:href="#DejaVuSans-Bold-65" transform="translate(509.521484 0)"/>
     <use xlink:href="#DejaVuSans-Bold-64" transform="translate(577.34375 0)"/>
     <use xlink:href="#DejaVuSans-Bold-69" transform="translate(648.925781 0)"/>
     <use xlink:href="#DejaVuSans-Bold-63" transform="translate(683.203125 0)"/>
     <use xlink:href="#DejaVuSans-Bold-74" transform="translate(742.480469 0)"/>
     <use xlink:href="#DejaVuSans-Bold-6f" transform="translate(790.283203 0)"/>
     <use xlink:href="#DejaVuSans-Bold-72" transform="translate(858.984375 0)"/>
    </g>
    <!-- βᵀx -->
    <g style="fill: #1f1f1f" transform="translate(191.999656 195.389473) scale(0.1 -0.1)">
     <defs>
      <path id="DejaVuSans-Bold-3b2" d="M 2575 3038 
Q 2772 3309 2772 3503 
Q 2772 3769 2648 3948 
Q 2525 4128 2241 4128 
Q 1900 4128 1778 3864 
Q 1656 3600 1656 3103 
L 1656 1747 
Q 1656 1250 1848 986 
Q 2041 722 2400 722 
Q 2800 722 2953 934 
Q 3106 1147 3106 1275 
Q 3106 1722 2738 1988 
Q 2538 2122 1988 2134 
L 1988 2847 
Q 2497 2925 2575 3038 
z
M 538 -1331 
L 538 3044 
Q 538 3922 969 4369 
Q 1325 4741 1672 4845 
Q 2019 4950 2259 4950 
Q 2500 4947 2538 4941 
Q 3178 4841 3538 4438 
Q 3788 4163 3788 3600 
Q 3788 3313 3616 3053 
Q 3406 2734 3094 2709 
Q 3556 2584 3844 2322 
Q 4294 1919 4294 1288 
Q 4294 731 3903 320 
Q 3513 -91 2809 -91 
Q 2106 -91 1656 506 
L 1656 -1331 
L 538 -1331 
z
" transform="scale(0.015625)"/>
      <path id="DejaVuSans-Bold-1d40" d="M 19 4700 
L 2728 4700 
L 2728 4191 
L 1753 4191 
L 1753 2088 
L 997 2088 
L 997 4191 
L 19 4191 
L 19 4700 
z
" transform="scale(0.015625)"/>
      <path id="DejaVuSans-Bold-78" d="M 1422 1791 
L 159 3500 
L 1344 3500 
L 2059 2463 
L 2784 3500 
L 3969 3500 
L 2706 1797 
L 4031 0 
L 2847 0 
L 2059 1106 
L 1281 0 
L 97 0 
L 1422 1791 
z
" transform="scale(0.015625)"/>
     </defs>
     <use xlink:href="#DejaVuSans-Bold-3b2"/>
     <use xlink:href="#DejaVuSans-Bold-1d40" transform="translate(71.582031 0)"/>
     <use xlink:href="#DejaVuSans-Bold-78" transform="translate(114.550781 0)"/>
    </g>
   </g>
   <g id="text_6">
    <!-- Link function -->
    <g style="fill: #1f1f1f" transform="translate(164.07075 230.423851) scale(0.1 -0.1)">
     <defs>
      <path id="DejaVuSans-Bold-6b" d="M 538 4863 
L 1656 4863 
L 1656 2216 
L 2944 3500 
L 4244 3500 
L 2534 1894 
L 4378 0 
L 3022 0 
L 1656 1459 
L 1656 0 
L 538 0 
L 538 4863 
z
" transform="scale(0.015625)"/>
      <path id="DejaVuSans-Bold-66" d="M 2841 4863 
L 2841 4128 
L 2222 4128 
Q 1984 4128 1890 4042 
Q 1797 3956 1797 3744 
L 1797 3500 
L 2753 3500 
L 2753 2700 
L 1797 2700 
L 1797 0 
L 678 0 
L 678 2700 
L 122 2700 
L 122 3500 
L 678 3500 
L 678 3744 
Q 678 4316 997 4589 
Q 1316 4863 1984 4863 
L 2841 4863 
z
" transform="scale(0.015625)"/>
     </defs>
     <use xlink:href="#DejaVuSans-Bold-4c"/>
     <use xlink:href="#DejaVuSans-Bold-69" transform="translate(63.720703 0)"/>
     <use xlink:href="#DejaVuSans-Bold-6e" transform="translate(97.998047 0)"/>
     <use xlink:href="#DejaVuSans-Bold-6b" transform="translate(169.189453 0)"/>
     <use xlink:href="#DejaVuSans-Bold-20" transform="translate(235.693359 0)"/>
     <use xlink:href="#DejaVuSans-Bold-66" transform="translate(270.507812 0)"/>
     <use xlink:href="#DejaVuSans-Bold-75" transform="translate(314.013672 0)"/>
     <use xlink:href="#DejaVuSans-Bold-6e" transform="translate(385.205078 0)"/>
     <use xlink:href="#DejaVuSans-Bold-63" transform="translate(456.396484 0)"/>
     <use xlink:href="#DejaVuSans-Bold-74" transform="translate(515.673828 0)"/>
     <use xlink:href="#DejaVuSans-Bold-69" transform="translate(563.476562 0)"/>
     <use xlink:href="#DejaVuSans-Bold-6f" transform="translate(597.753906 0)"/>
     <use xlink:href="#DejaVuSans-Bold-6e" transform="translate(666.455078 0)"/>
    </g>
    <!-- (sigmoid for incidence) -->
    <g style="fill: #1f1f1f" transform="translate(135.780906 241.621664) scale(0.1 -0.1)">
     <use xlink:href="#DejaVuSans-Bold-28"/>
     <use xlink:href="#DejaVuSans-Bold-73" transform="translate(45.703125 0)"/>
     <use xlink:href="#DejaVuSans-Bold-69" transform="translate(105.224609 0)"/>
     <use xlink:href="#DejaVuSans-Bold-67" transform="translate(139.501953 0)"/>
     <use xlink:href="#DejaVuSans-Bold-6d" transform="translate(211.083984 0)"/>
     <use xlink:href="#DejaVuSans-Bold-6f" transform="translate(315.283203 0)"/>
     <use xlink:href="#DejaVuSans-Bold-69" transform="translate(383.984375 0)"/>
     <use xlink:href="#DejaVuSans-Bold-64" transform="translate(418.261719 0)"/>
     <use xlink:href="#DejaVuSans-Bold-20" transform="translate(489.84375 0)"/>
     <use xlink:href="#DejaVuSans-Bold-66" transform="translate(524.658203 0)"/>
     <use xlink:href="#DejaVuSans-Bold-6f" transform="translate(568.164062 0)"/>
     <use xlink:href="#DejaVuSans-Bold-72" transform="translate(636.865234 0)"/>
     <use xlink:href="#DejaVuSans-Bold-20" transform="translate(686.181641 0)"/>
     <use xlink:href="#DejaVuSans-Bold-69" transform="translate(720.996094 0)"/>
     <use xlink:href="#DejaVuSans-Bold-6e" transform="translate(755.273438 0)"/>
     <use xlink:href="#DejaVuSans-Bold-63" transform="translate(826.464844 0)"/>
     <use xlink:href="#DejaVuSans-Bold-69" transform="translate(885.742188 0)"/>
     <use xlink:href="#DejaVuSans-Bold-64" transform="translate(920.019531 0)"/>
     <use xlink:href="#DejaVuSans-Bold-65" transform="translate(991.601562 0)"/>
     <use xlink:href="#DejaVuSans-Bold-6e" transform="translate(1059.423828 0)"/>
     <use xlink:href="#DejaVuSans-Bold-63" transform="translate(1130.615234 0)"/>
     <use xlink:href="#DejaVuSans-Bold-65" transform="translate(1189.892578 0)"/>
     <use xlink:href="#DejaVuSans-Bold-29" transform="translate(1257.714844 0)"/>
    </g>
    <!-- (log for severity) -->
    <g style="fill: #1f1f1f" transform="translate(153.249656 252.897601) scale(0.1 -0.1)">
     <defs>
      <path id="DejaVuSans-Bold-76" d="M 97 3500 
L 1216 3500 
L 2088 1081 
L 2956 3500 
L 4078 3500 
L 2700 0 
L 1472 0 
L 97 3500 
z
" transform="scale(0.015625)"/>
      <path id="DejaVuSans-Bold-79" d="M 78 3500 
L 1197 3500 
L 2138 1125 
L 2938 3500 
L 4056 3500 
L 2584 -331 
Q 2363 -916 2067 -1148 
Q 1772 -1381 1288 -1381 
L 641 -1381 
L 641 -647 
L 991 -647 
Q 1275 -647 1404 -556 
Q 1534 -466 1606 -231 
L 1638 -134 
L 78 3500 
z
" transform="scale(0.015625)"/>
     </defs>
     <use xlink:href="#DejaVuSans-Bold-28"/>
     <use xlink:href="#DejaVuSans-Bold-6c" transform="translate(45.703125 0)"/>
     <use xlink:href="#DejaVuSans-Bold-6f" transform="translate(79.980469 0)"/>
     <use xlink:href="#DejaVuSans-Bold-67" transform="translate(148.681641 0)"/>
     <use xlink:href="#DejaVuSans-Bold-20" transform="translate(220.263672 0)"/>
     <use xlink:href="#DejaVuSans-Bold-66" transform="translate(255.078125 0)"/>
     <use xlink:href="#DejaVuSans-Bold-6f" transform="translate(298.583984 0)"/>
     <use xlink:href="#DejaVuSans-Bold-72" transform="translate(367.285156 0)"/>
     <use xlink:href="#DejaVuSans-Bold-20" transform="translate(416.601562 0)"/>
     <use xlink:href="#DejaVuSans-Bold-73" transform="translate(451.416016 0)"/>
     <use xlink:href="#DejaVuSans-Bold-65" transform="translate(510.9375 0)"/>
     <use xlink:href="#DejaVuSans-Bold-76" transform="translate(578.759766 0)"/>
     <use xlink:href="#DejaVuSans-Bold-65" transform="translate(643.945312 0)"/>
     <use xlink:href="#DejaVuSans-Bold-72" transform="translate(711.767578 0)"/>
     <use xlink:href="#DejaVuSans-Bold-69" transform="translate(761.083984 0)"/>
     <use xlink:href="#DejaVuSans-Bold-74" transform="translate(795.361328 0)"/>
     <use xlink:href="#DejaVuSans-Bold-79" transform="translate(843.164062 0)"/>
     <use xlink:href="#DejaVuSans-Bold-29" transform="translate(908.349609 0)"/>
    </g>
   </g>
   <g id="patch_10">
    <path d="M 200.952 101.868666 
Q 200.952 108.967017 200.952 114.052907 
" style="fill: none; stroke: #4f4f4f; stroke-width: 1.8; stroke-linecap: round"/>
    <path d="M 204.552 106.852907 
L 200.952 114.052907 
L 197.352 106.852907 
z
" style="fill: #4f4f4f; stroke: #4f4f4f; stroke-width: 1.8; stroke-linecap: round"/>
   </g>
   <g id="patch_11">
    <path d="M 200.952 153.85945 
Q 200.952 160.957801 200.952 166.043691 
" style="fill: none; stroke: #4f4f4f; stroke-width: 1.8; stroke-linecap: round"/>
    <path d="M 204.552 158.843691 
L 200.952 166.043691 
L 197.352 158.843691 
z
" style="fill: #4f4f4f; stroke: #4f4f4f; stroke-width: 1.8; stroke-linecap: round"/>
   </g>
   <g id="patch_12">
    <path d="M 200.952 205.850234 
Q 200.952 212.948585 200.952 218.034475 
" style="fill: none; stroke: #4f4f4f; stroke-width: 1.8; stroke-linecap: round"/>
    <path d="M 204.552 210.834475 
L 200.952 218.034475 
L 197.352 210.834475 
z
" style="fill: #4f4f4f; stroke: #4f4f4f; stroke-width: 1.8; stroke-linecap: round"/>
   </g>
   <g id="text_7">
    <!-- Strengths: transparency, stability, easy audit trail -->
    <g style="fill: #333333" transform="translate(105.988359 274.078154) scale(0.09 -0.09)">
     <defs>
      <path id="DejaVuSans-53" d="M 3425 4513 
L 3425 3897 
Q 3066 4069 2747 4153 
Q 2428 4238 2131 4238 
Q 1616 4238 1336 4038 
Q 1056 3838 1056 3469 
Q 1056 3159 1242 3001 
Q 1428 2844 1947 2747 
L 2328 2669 
Q 3034 2534 3370 2195 
Q 3706 1856 3706 1288 
Q 3706 609 3251 259 
Q 2797 -91 1919 -91 
Q 1588 -91 1214 -16 
Q 841 59 441 206 
L 441 856 
Q 825 641 1194 531 
Q 1563 422 1919 422 
Q 2459 422 2753 634 
Q 3047 847 3047 1241 
Q 3047 1584 2836 1778 
Q 2625 1972 2144 2069 
L 1759 2144 
Q 1053 2284 737 2584 
Q 422 2884 422 3419 
Q 422 4038 858 4394 
Q 1294 4750 2059 4750 
Q 2388 4750 2728 4690 
Q 3069 4631 3425 4513 
z
" transform="scale(0.015625)"/>
      <path id="DejaVuSans-74" d="M 1172 4494 
L 1172 3500 
L 2356 3500 
L 2356 3053 
L 1172 3053 
L 1172 1153 
Q 1172 725 1289 603 
Q 1406 481 1766 481 
L 2356 481 
L 2356 0 
L 1766 0 
Q 1100 0 847 248 
Q 594 497 594 1153 
L 594 3053 
L 172 3053 
L 172 3500 
L 594 3500 
L 594 4494 
L 1172 4494 
z
" transform="scale(0.015625)"/>
      <path id="DejaVuSans-72" d="M 2631 2963 
Q 2534 3019 2420 3045 
Q 2306 3072 2169 3072 
Q 1681 3072 1420 2755 
Q 1159 2438 1159 1844 
L 1159 0 
L 581 0 
L 581 3500 
L 1159 3500 
L 1159 2956 
Q 1341 3275 1631 3429 
Q 1922 3584 2338 3584 
Q 2397 3584 2469 3576 
Q 2541 3569 2628 3553 
L 2631 2963 
z
" transform="scale(0.015625)"/>
      <path id="DejaVuSans-65" d="M 3597 1894 
L 3597 1613 
L 953 1613 
Q 991 1019 1311 708 
Q 1631 397 2203 397 
Q 2534 397 2845 478 
Q 3156 559 3463 722 
L 3463 178 
Q 3153 47 2828 -22 
Q 2503 -91 2169 -91 
Q 1331 -91 842 396 
Q 353 884 353 1716 
Q 353 2575 817 3079 
Q 1281 3584 2069 3584 
Q 2775 3584 3186 3129 
Q 3597 2675 3597 1894 
z
M 3022 2063 
Q 3016 2534 2758 2815 
Q 2500 3097 2075 3097 
Q 1594 3097 1305 2825 
Q 1016 2553 972 2059 
L 3022 2063 
z
" transform="scale(0.015625)"/>
      <path id="DejaVuSans-6e" d="M 3513 2113 
L 3513 0 
L 2938 0 
L 2938 2094 
Q 2938 2591 2744 2837 
Q 2550 3084 2163 3084 
Q 1697 3084 1428 2787 
Q 1159 2491 1159 1978 
L 1159 0 
L 581 0 
L 581 3500 
L 1159 3500 
L 1159 2956 
Q 1366 3272 1645 3428 
Q 1925 3584 2291 3584 
Q 2894 3584 3203 3211 
Q 3513 2838 3513 2113 
z
" transform="scale(0.015625)"/>
      <path id="DejaVuSans-67" d="M 2906 1791 
Q 2906 2416 2648 2759 
Q 2391 3103 1925 3103 
Q 1463 3103 1205 2759 
Q 947 2416 947 1791 
Q 947 1169 1205 825 
Q 1463 481 1925 481 
Q 2391 481 2648 825 
Q 2906 1169 2906 1791 
z
M 3481 434 
Q 3481 -459 3084 -895 
Q 2688 -1331 1869 -1331 
Q 1566 -1331 1297 -1286 
Q 1028 -1241 775 -1147 
L 775 -588 
Q 1028 -725 1275 -790 
Q 1522 -856 1778 -856 
Q 2344 -856 2625 -561 
Q 2906 -266 2906 331 
L 2906 616 
Q 2728 306 2450 153 
Q 2172 0 1784 0 
Q 1141 0 747 490 
Q 353 981 353 1791 
Q 353 2603 747 3093 
Q 1141 3584 1784 3584 
Q 2172 3584 2450 3431 
Q 2728 3278 2906 2969 
L 2906 3500 
L 3481 3500 
L 3481 434 
z
" transform="scale(0.015625)"/>
      <path id="DejaVuSans-68" d="M 3513 2113 
L 3513 0 
L 2938 0 
L 2938 2094 
Q 2938 2591 2744 2837 
Q 2550 3084 2163 3084 
Q 1697 3084 1428 2787 
Q 1159 2491 1159 1978 
L 1159 0 
L 581 0 
L 581 4863 
L 1159 4863 
L 1159 2956 
Q 1366 3272 1645 3428 
Q 1925 3584 2291 3584 
Q 2894 3584 3203 3211 
Q 3513 2838 3513 2113 
z
" transform="scale(0.015625)"/>
      <path id="DejaVuSans-73" d="M 2834 3397 
L 2834 2853 
Q 2591 2978 2328 3040 
Q 2066 3103 1784 3103 
Q 1356 3103 1142 2972 
Q 928 2841 928 2578 
Q 928 2378 1081 2264 
Q 1234 2150 1697 2047 
L 1894 2003 
Q 2506 1872 2764 1633 
Q 3022 1394 3022 966 
Q 3022 478 2636 193 
Q 2250 -91 1575 -91 
Q 1294 -91 989 -36 
Q 684 19 347 128 
L 347 722 
Q 666 556 975 473 
Q 1284 391 1588 391 
Q 1994 391 2212 530 
Q 2431 669 2431 922 
Q 2431 1156 2273 1281 
Q 2116 1406 1581 1522 
L 1381 1569 
Q 847 1681 609 1914 
Q 372 2147 372 2553 
Q 372 3047 722 3315 
Q 1072 3584 1716 3584 
Q 2034 3584 2315 3537 
Q 2597 3491 2834 3397 
z
" transform="scale(0.015625)"/>
      <path id="DejaVuSans-3a" d="M 750 794 
L 1409 794 
L 1409 0 
L 750 0 
L 750 794 
z
M 750 3309 
L 1409 3309 
L 1409 2516 
L 750 2516 
L 750 3309 
z
" transform="scale(0.015625)"/>
      <path id="DejaVuSans-20" transform="scale(0.015625)"/>
      <path id="DejaVuSans-61" d="M 2194 1759 
Q 1497 1759 1228 1600 
Q 959 1441 959 1056 
Q 959 750 1161 570 
Q 1363 391 1709 391 
Q 2188 391 2477 730 
Q 2766 1069 2766 1631 
L 2766 1759 
L 2194 1759 
z
M 3341 1997 
L 3341 0 
L 2766 0 
L 2766 531 
Q 2569 213 2275 61 
Q 1981 -91 1556 -91 
Q 1019 -91 701 211 
Q 384 513 384 1019 
Q 384 1609 779 1909 
Q 1175 2209 1959 2209 
L 2766 2209 
L 2766 2266 
Q 2766 2663 2505 2880 
Q 2244 3097 1772 3097 
Q 1472 3097 1187 3025 
Q 903 2953 641 2809 
L 641 3341 
Q 956 3463 1253 3523 
Q 1550 3584 1831 3584 
Q 2591 3584 2966 3190 
Q 3341 2797 3341 1997 
z
" transform="scale(0.015625)"/>
      <path id="DejaVuSans-70" d="M 1159 525 
L 1159 -1331 
L 581 -1331 
L 581 3500 
L 1159 3500 
L 1159 2969 
Q 1341 3281 1617 3432 
Q 1894 3584 2278 3584 
Q 2916 3584 3314 3078 
Q 3713 2572 3713 1747 
Q 3713 922 3314 415 
Q 2916 -91 2278 -91 
Q 1894 -91 1617 61 
Q 1341 213 1159 525 
z
M 3116 1747 
Q 3116 2381 2855 2742 
Q 2594 3103 2138 3103 
Q 1681 3103 1420 2742 
Q 1159 2381 1159 1747 
Q 1159 1113 1420 752 
Q 1681 391 2138 391 
Q 2594 391 2855 752 
Q 3116 1113 3116 1747 
z
" transform="scale(0.015625)"/>
      <path id="DejaVuSans-63" d="M 3122 3366 
L 3122 2828 
Q 2878 2963 2633 3030 
Q 2388 3097 2138 3097 
Q 1578 3097 1268 2742 
Q 959 2388 959 1747 
Q 959 1106 1268 751 
Q 1578 397 2138 397 
Q 2388 397 2633 464 
Q 2878 531 3122 666 
L 3122 134 
Q 2881 22 2623 -34 
Q 2366 -91 2075 -91 
Q 1284 -91 818 406 
Q 353 903 353 1747 
Q 353 2603 823 3093 
Q 1294 3584 2113 3584 
Q 2378 3584 2631 3529 
Q 2884 3475 3122 3366 
z
" transform="scale(0.015625)"/>
      <path id="DejaVuSans-79" d="M 2059 -325 
Q 1816 -950 1584 -1140 
Q 1353 -1331 966 -1331 
L 506 -1331 
L 506 -850 
L 844 -850 
Q 1081 -850 1212 -737 
Q 1344 -625 1503 -206 
L 1606 56 
L 191 3500 
L 800 3500 
L 1894 763 
L 2988 3500 
L 3597 3500 
L 2059 -325 
z
" transform="scale(0.015625)"/>
      <path id="DejaVuSans-2c" d="M 750 794 
L 1409 794 
L 1409 256 
L 897 -744 
L 494 -744 
L 750 256 
L 750 794 
z
" transform="scale(0.015625)"/>
      <path id="DejaVuSans-62" d="M 3116 1747 
Q 3116 2381 2855 2742 
Q 2594 3103 2138 3103 
Q 1681 3103 1420 2742 
Q 1159 2381 1159 1747 
Q 1159 1113 1420 752 
Q 1681 391 2138 391 
Q 2594 391 2855 752 
Q 3116 1113 3116 1747 
z
M 1159 2969 
Q 1341 3281 1617 3432 
Q 1894 3584 2278 3584 
Q 2916 3584 3314 3078 
Q 3713 2572 3713 1747 
Q 3713 922 3314 415 
Q 2916 -91 2278 -91 
Q 1894 -91 1617 61 
Q 1341 213 1159 525 
L 1159 0 
L 581 0 
L 581 4863 
L 1159 4863 
L 1159 2969 
z
" transform="scale(0.015625)"/>
      <path id="DejaVuSans-69" d="M 603 3500 
L 1178 3500 
L 1178 0 
L 603 0 
L 603 3500 
z
M 603 4863 
L 1178 4863 
L 1178 4134 
L 603 4134 
L 603 4863 
z
" transform="scale(0.015625)"/>
      <path id="DejaVuSans-6c" d="M 603 4863 
L 1178 4863 
L 1178 0 
L 603 0 
L 603 4863 
z
" transform="scale(0.015625)"/>
      <path id="DejaVuSans-75" d="M 544 1381 
L 544 3500 
L 1119 3500 
L 1119 1403 
Q 1119 906 1312 657 
Q 1506 409 1894 409 
Q 2359 409 2629 706 
Q 2900 1003 2900 1516 
L 2900 3500 
L 3475 3500 
L 3475 0 
L 2900 0 
L 2900 538 
Q 2691 219 2414 64 
Q 2138 -91 1772 -91 
Q 1169 -91 856 284 
Q 544 659 544 1381 
z
M 1991 3584 
L 1991 3584 
z
" transform="scale(0.015625)"/>
      <path id="DejaVuSans-64" d="M 2906 2969 
L 2906 4863 
L 3481 4863 
L 3481 0 
L 2906 0 
L 2906 525 
Q 2725 213 2448 61 
Q 2172 -91 1784 -91 
Q 1150 -91 751 415 
Q 353 922 353 1747 
Q 353 2572 751 3078 
Q 1150 3584 1784 3584 
Q 2172 3584 2448 3432 
Q 2725 3281 2906 2969 
z
M 947 1747 
Q 947 1113 1208 752 
Q 1469 391 1925 391 
Q 2381 391 2643 752 
Q 2906 1113 2906 1747 
Q 2906 2381 2643 2742 
Q 2381 3103 1925 3103 
Q 1469 3103 1208 2742 
Q 947 2381 947 1747 
z
" transform="scale(0.015625)"/>
     </defs>
     <use xlink:href="#DejaVuSans-53"/>
     <use xlink:href="#DejaVuSans-74" transform="translate(63.476562 0)"/>
     <use xlink:href="#DejaVuSans-72" transform="translate(102.685547 0)"/>
     <use xlink:href="#DejaVuSans-65" transform="translate(141.548828 0)"/>
     <use xlink:href="#DejaVuSans-6e" transform="translate(203.072266 0)"/>
     <use xlink:href="#DejaVuSans-67" transform="translate(266.451172 0)"/>
     <use xlink:href="#DejaVuSans-74" transform="translate(329.927734 0)"/>
     <use xlink:href="#DejaVuSans-68" transform="translate(369.136719 0)"/>
     <use xlink:href="#DejaVuSans-73" transform="translate(432.515625 0)"/>
     <use xlink:href="#DejaVuSans-3a" transform="translate(484.615234 0)"/>
     <use xlink:href="#DejaVuSans-20" transform="translate(518.306641 0)"/>
     <use xlink:href="#DejaVuSans-74" transform="translate(550.09375 0)"/>
     <use xlink:href="#DejaVuSans-72" transform="translate(589.302734 0)"/>
     <use xlink:href="#DejaVuSans-61" transform="translate(630.416016 0)"/>
     <use xlink:href="#DejaVuSans-6e" transform="translate(691.695312 0)"/>
     <use xlink:href="#DejaVuSans-73" transform="translate(755.074219 0)"/>
     <use xlink:href="#DejaVuSans-70" transform="translate(807.173828 0)"/>
     <use xlink:href="#DejaVuSans-61" transform="translate(870.650391 0)"/>
     <use xlink:href="#DejaVuSans-72" transform="translate(931.929688 0)"/>
     <use xlink:href="#DejaVuSans-65" transform="translate(970.792969 0)"/>
     <use xlink:href="#DejaVuSans-6e" transform="translate(1032.316406 0)"/>
     <use xlink:href="#DejaVuSans-63" transform="translate(1095.695312 0)"/>
     <use xlink:href="#DejaVuSans-79" transform="translate(1150.675781 0)"/>
     <use xlink:href="#DejaVuSans-2c" transform="translate(1209.855469 0)"/>
     <use xlink:href="#DejaVuSans-20" transform="translate(1241.642578 0)"/>
     <use xlink:href="#DejaVuSans-73" transform="translate(1273.429688 0)"/>
     <use xlink:href="#DejaVuSans-74" transform="translate(1325.529297 0)"/>
     <use xlink:href="#DejaVuSans-61" transform="translate(1364.738281 0)"/>
     <use xlink:href="#DejaVuSans-62" transform="translate(1426.017578 0)"/>
     <use xlink:href="#DejaVuSans-69" transform="translate(1489.494141 0)"/>
     <use xlink:href="#DejaVuSans-6c" transform="translate(1517.277344 0)"/>
     <use xlink:href="#DejaVuSans-69" transform="translate(1545.060547 0)"/>
     <use xlink:href="#DejaVuSans-74" transform="translate(1572.84375 0)"/>
     <use xlink:href="#DejaVuSans-79" transform="translate(1612.052734 0)"/>
     <use xlink:href="#DejaVuSans-2c" transform="translate(1671.232422 0)"/>
     <use xlink:href="#DejaVuSans-20" transform="translate(1703.019531 0)"/>
     <use xlink:href="#DejaVuSans-65" transform="translate(1734.806641 0)"/>
     <use xlink:href="#DejaVuSans-61" transform="translate(1796.330078 0)"/>
     <use xlink:href="#DejaVuSans-73" transform="translate(1857.609375 0)"/>
     <use xlink:href="#DejaVuSans-79" transform="translate(1909.708984 0)"/>
     <use xlink:href="#DejaVuSans-20" transform="translate(1968.888672 0)"/>
     <use xlink:href="#DejaVuSans-61" transform="translate(2000.675781 0)"/>
     <use xlink:href="#DejaVuSans-75" transform="translate(2061.955078 0)"/>
     <use xlink:href="#DejaVuSans-64" transform="translate(2125.333984 0)"/>
     <use xlink:href="#DejaVuSans-69" transform="translate(2188.810547 0)"/>
     <use xlink:href="#DejaVuSans-74" transform="translate(2216.59375 0)"/>
     <use xlink:href="#DejaVuSans-20" transform="translate(2255.802734 0)"/>
     <use xlink:href="#DejaVuSans-74" transform="translate(2287.589844 0)"/>
     <use xlink:href="#DejaVuSans-72" transform="translate(2326.798828 0)"/>
     <use xlink:href="#DejaVuSans-61" transform="translate(2367.912109 0)"/>
     <use xlink:href="#DejaVuSans-69" transform="translate(2429.191406 0)"/>
     <use xlink:href="#DejaVuSans-6c" transform="translate(2456.974609 0)"/>
    </g>
    <!-- Use: baseline + governance anchor -->
    <g style="fill: #333333" transform="translate(137.479922 284.156185) scale(0.09 -0.09)">
     <defs>
      <path id="DejaVuSans-55" d="M 556 4666 
L 1191 4666 
L 1191 1831 
Q 1191 1081 1462 751 
Q 1734 422 2344 422 
Q 2950 422 3222 751 
Q 3494 1081 3494 1831 
L 3494 4666 
L 4128 4666 
L 4128 1753 
Q 4128 841 3676 375 
Q 3225 -91 2344 -91 
Q 1459 -91 1007 375 
Q 556 841 556 1753 
L 556 4666 
z
" transform="scale(0.015625)"/>
      <path id="DejaVuSans-2b" d="M 2944 4013 
L 2944 2272 
L 4684 2272 
L 4684 1741 
L 2944 1741 
L 2944 0 
L 2419 0 
L 2419 1741 
L 678 1741 
L 678 2272 
L 2419 2272 
L 2419 4013 
L 2944 4013 
z
" transform="scale(0.015625)"/>
      <path id="DejaVuSans-6f" d="M 1959 3097 
Q 1497 3097 1228 2736 
Q 959 2375 959 1747 
Q 959 1119 1226 758 
Q 1494 397 1959 397 
Q 2419 397 2687 759 
Q 2956 1122 2956 1747 
Q 2956 2369 2687 2733 
Q 2419 3097 1959 3097 
z
M 1959 3584 
Q 2709 3584 3137 3096 
Q 3566 2609 3566 1747 
Q 3566 888 3137 398 
Q 2709 -91 1959 -91 
Q 1206 -91 779 398 
Q 353 888 353 1747 
Q 353 2609 779 3096 
Q 1206 3584 1959 3584 
z
" transform="scale(0.015625)"/>
      <path id="DejaVuSans-76" d="M 191 3500 
L 800 3500 
L 1894 563 
L 2988 3500 
L 3597 3500 
L 2284 0 
L 1503 0 
L 191 3500 
z
" transform="scale(0.015625)"/>
     </defs>
     <use xlink:href="#DejaVuSans-55"/>
     <use xlink:href="#DejaVuSans-73" transform="translate(73.193359 0)"/>
     <use xlink:href="#DejaVuSans-65" transform="translate(125.292969 0)"/>
     <use xlink:href="#DejaVuSans-3a" transform="translate(186.816406 0)"/>
     <use xlink:href="#DejaVuSans-20" transform="translate(220.507812 0)"/>
     <use xlink:href="#DejaVuSans-62" transform="translate(252.294922 0)"/>
     <use xlink:href="#DejaVuSans-61" transform="translate(315.771484 0)"/>
     <use xlink:href="#DejaVuSans-73" transform="translate(377.050781 0)"/>
     <use xlink:href="#DejaVuSans-65" transform="translate(429.150391 0)"/>
     <use xlink:href="#DejaVuSans-6c" transform="translate(490.673828 0)"/>
     <use xlink:href="#DejaVuSans-69" transform="translate(518.457031 0)"/>
     <use xlink:href="#DejaVuSans-6e" transform="translate(546.240234 0)"/>
     <use xlink:href="#DejaVuSans-65" transform="translate(609.619141 0)"/>
     <use xlink:href="#DejaVuSans-20" transform="translate(671.142578 0)"/>
     <use xlink:href="#DejaVuSans-2b" transform="translate(702.929688 0)"/>
     <use xlink:href="#DejaVuSans-20" transform="translate(786.71875 0)"/>
     <use xlink:href="#DejaVuSans-67" transform="translate(818.505859 0)"/>
     <use xlink:href="#DejaVuSans-6f" transform="translate(881.982422 0)"/>
     <use xlink:href="#DejaVuSans-76" transform="translate(943.164062 0)"/>
     <use xlink:href="#DejaVuSans-65" transform="translate(1002.34375 0)"/>
     <use xlink:href="#DejaVuSans-72" transform="translate(1063.867188 0)"/>
     <use xlink:href="#DejaVuSans-6e" transform="translate(1103.230469 0)"/>
     <use xlink:href="#DejaVuSans-61" transform="translate(1166.609375 0)"/>
     <use xlink:href="#DejaVuSans-6e" transform="translate(1227.888672 0)"/>
     <use xlink:href="#DejaVuSans-63" transform="translate(1291.267578 0)"/>
     <use xlink:href="#DejaVuSans-65" transform="translate(1346.248047 0)"/>
     <use xlink:href="#DejaVuSans-20" transform="translate(1407.771484 0)"/>
     <use xlink:href="#DejaVuSans-61" transform="translate(1439.558594 0)"/>
     <use xlink:href="#DejaVuSans-6e" transform="translate(1500.837891 0)"/>
     <use xlink:href="#DejaVuSans-63" transform="translate(1564.216797 0)"/>
     <use xlink:href="#DejaVuSans-68" transform="translate(1619.197266 0)"/>
     <use xlink:href="#DejaVuSans-6f" transform="translate(1682.576172 0)"/>
     <use xlink:href="#DejaVuSans-72" transform="translate(1743.757812 0)"/>
    </g>
   </g>
   <g id="text_8">
    <!-- Inputs split -->
    <g style="fill: #1f1f1f" transform="translate(590.115281 80.089468) scale(0.1 -0.1)">
     <use xlink:href="#DejaVuSans-Bold-49"/>
     <use xlink:href="#DejaVuSans-Bold-6e" transform="translate(37.207031 0)"/>
     <use xlink:href="#DejaVuSans-Bold-70" transform="translate(108.398438 0)"/>
     <use xlink:href="#DejaVuSans-Bold-75" transform="translate(179.980469 0)"/>
     <use xlink:href="#DejaVuSans-Bold-74" transform="translate(251.171875 0)"/>
     <use xlink:href="#DejaVuSans-Bold-73" transform="translate(298.974609 0)"/>
     <use xlink:href="#DejaVuSans-Bold-20" transform="translate(358.496094 0)"/>
     <use xlink:href="#DejaVuSans-Bold-73" transform="translate(393.310547 0)"/>
     <use xlink:href="#DejaVuSans-Bold-70" transform="translate(452.832031 0)"/>
     <use xlink:href="#DejaVuSans-Bold-6c" transform="translate(524.414062 0)"/>
     <use xlink:href="#DejaVuSans-Bold-69" transform="translate(558.691406 0)"/>
     <use xlink:href="#DejaVuSans-Bold-74" transform="translate(592.96875 0)"/>
    </g>
    <!-- (high-card IDs + other features) -->
    <g style="fill: #1f1f1f" transform="translate(531.609031 91.28728) scale(0.1 -0.1)">
     <defs>
      <path id="DejaVuSans-Bold-44" d="M 1791 3756 
L 1791 909 
L 2222 909 
Q 2959 909 3348 1275 
Q 3738 1641 3738 2338 
Q 3738 3031 3350 3393 
Q 2963 3756 2222 3756 
L 1791 3756 
z
M 588 4666 
L 1856 4666 
Q 2919 4666 3439 4514 
Q 3959 4363 4331 4000 
Q 4659 3684 4818 3271 
Q 4978 2859 4978 2338 
Q 4978 1809 4818 1395 
Q 4659 981 4331 666 
Q 3956 303 3431 151 
Q 2906 0 1856 0 
L 588 0 
L 588 4666 
z
" transform="scale(0.015625)"/>
     </defs>
     <use xlink:href="#DejaVuSans-Bold-28"/>
     <use xlink:href="#DejaVuSans-Bold-68" transform="translate(45.703125 0)"/>
     <use xlink:href="#DejaVuSans-Bold-69" transform="translate(116.894531 0)"/>
     <use xlink:href="#DejaVuSans-Bold-67" transform="translate(151.171875 0)"/>
     <use xlink:href="#DejaVuSans-Bold-68" transform="translate(222.753906 0)"/>
     <use xlink:href="#DejaVuSans-Bold-2d" transform="translate(293.945312 0)"/>
     <use xlink:href="#DejaVuSans-Bold-63" transform="translate(335.449219 0)"/>
     <use xlink:href="#DejaVuSans-Bold-61" transform="translate(394.726562 0)"/>
     <use xlink:href="#DejaVuSans-Bold-72" transform="translate(462.207031 0)"/>
     <use xlink:href="#DejaVuSans-Bold-64" transform="translate(511.523438 0)"/>
     <use xlink:href="#DejaVuSans-Bold-20" transform="translate(583.105469 0)"/>
     <use xlink:href="#DejaVuSans-Bold-49" transform="translate(617.919922 0)"/>
     <use xlink:href="#DejaVuSans-Bold-44" transform="translate(655.126953 0)"/>
     <use xlink:href="#DejaVuSans-Bold-73" transform="translate(738.134766 0)"/>
     <use xlink:href="#DejaVuSans-Bold-20" transform="translate(797.65625 0)"/>
     <use xlink:href="#DejaVuSans-Bold-2b" transform="translate(832.470703 0)"/>
     <use xlink:href="#DejaVuSans-Bold-20" transform="translate(916.259766 0)"/>
     <use xlink:href="#DejaVuSans-Bold-6f" transform="translate(951.074219 0)"/>
     <use xlink:href="#DejaVuSans-Bold-74" transform="translate(1019.775391 0)"/>
     <use xlink:href="#DejaVuSans-Bold-68" transform="translate(1067.578125 0)"/>
     <use xlink:href="#DejaVuSans-Bold-65" transform="translate(1138.769531 0)"/>
     <use xlink:href="#DejaVuSans-Bold-72" transform="translate(1206.591797 0)"/>
     <use xlink:href="#DejaVuSans-Bold-20" transform="translate(1255.908203 0)"/>
     <use xlink:href="#DejaVuSans-Bold-66" transform="translate(1290.722656 0)"/>
     <use xlink:href="#DejaVuSans-Bold-65" transform="translate(1334.228516 0)"/>
     <use xlink:href="#DejaVuSans-Bold-61" transform="translate(1402.050781 0)"/>
     <use xlink:href="#DejaVuSans-Bold-74" transform="translate(1469.53125 0)"/>
     <use xlink:href="#DejaVuSans-Bold-75" transform="translate(1517.333984 0)"/>
     <use xlink:href="#DejaVuSans-Bold-72" transform="translate(1588.525391 0)"/>
     <use xlink:href="#DejaVuSans-Bold-65" transform="translate(1637.841797 0)"/>
     <use xlink:href="#DejaVuSans-Bold-73" transform="translate(1705.664062 0)"/>
     <use xlink:href="#DejaVuSans-Bold-29" transform="translate(1765.185547 0)"/>
    </g>
   </g>
   <g id="text_9">
    <!-- Embeddings -->
    <g style="fill: #1f1f1f" transform="translate(587.569969 126.442283) scale(0.1 -0.1)">
     <defs>
      <path id="DejaVuSans-Bold-45" d="M 588 4666 
L 3834 4666 
L 3834 3756 
L 1791 3756 
L 1791 2888 
L 3713 2888 
L 3713 1978 
L 1791 1978 
L 1791 909 
L 3903 909 
L 3903 0 
L 588 0 
L 588 4666 
z
" transform="scale(0.015625)"/>
     </defs>
     <use xlink:href="#DejaVuSans-Bold-45"/>
     <use xlink:href="#DejaVuSans-Bold-6d" transform="translate(68.310547 0)"/>
     <use xlink:href="#DejaVuSans-Bold-62" transform="translate(172.509766 0)"/>
     <use xlink:href="#DejaVuSans-Bold-65" transform="translate(244.091797 0)"/>
     <use xlink:href="#DejaVuSans-Bold-64" transform="translate(311.914062 0)"/>
     <use xlink:href="#DejaVuSans-Bold-64" transform="translate(383.496094 0)"/>
     <use xlink:href="#DejaVuSans-Bold-69" transform="translate(455.078125 0)"/>
     <use xlink:href="#DejaVuSans-Bold-6e" transform="translate(489.355469 0)"/>
     <use xlink:href="#DejaVuSans-Bold-67" transform="translate(560.546875 0)"/>
     <use xlink:href="#DejaVuSans-Bold-73" transform="translate(632.128906 0)"/>
    </g>
    <!-- (region/occ/employer/plan) -->
    <g style="fill: #1f1f1f" transform="translate(545.921531 137.718221) scale(0.1 -0.1)">
     <defs>
      <path id="DejaVuSans-Bold-2f" d="M 1644 4666 
L 2338 4666 
L 691 -594 
L 0 -594 
L 1644 4666 
z
" transform="scale(0.015625)"/>
     </defs>
     <use xlink:href="#DejaVuSans-Bold-28"/>
     <use xlink:href="#DejaVuSans-Bold-72" transform="translate(45.703125 0)"/>
     <use xlink:href="#DejaVuSans-Bold-65" transform="translate(95.019531 0)"/>
     <use xlink:href="#DejaVuSans-Bold-67" transform="translate(162.841797 0)"/>
     <use xlink:href="#DejaVuSans-Bold-69" transform="translate(234.423828 0)"/>
     <use xlink:href="#DejaVuSans-Bold-6f" transform="translate(268.701172 0)"/>
     <use xlink:href="#DejaVuSans-Bold-6e" transform="translate(337.402344 0)"/>
     <use xlink:href="#DejaVuSans-Bold-2f" transform="translate(408.59375 0)"/>
     <use xlink:href="#DejaVuSans-Bold-6f" transform="translate(445.117188 0)"/>
     <use xlink:href="#DejaVuSans-Bold-63" transform="translate(513.818359 0)"/>
     <use xlink:href="#DejaVuSans-Bold-63" transform="translate(573.095703 0)"/>
     <use xlink:href="#DejaVuSans-Bold-2f" transform="translate(632.373047 0)"/>
     <use xlink:href="#DejaVuSans-Bold-65" transform="translate(668.896484 0)"/>
     <use xlink:href="#DejaVuSans-Bold-6d" transform="translate(736.71875 0)"/>
     <use xlink:href="#DejaVuSans-Bold-70" transform="translate(840.917969 0)"/>
     <use xlink:href="#DejaVuSans-Bold-6c" transform="translate(912.5 0)"/>
     <use xlink:href="#DejaVuSans-Bold-6f" transform="translate(946.777344 0)"/>
     <use xlink:href="#DejaVuSans-Bold-79" transform="translate(1015.478516 0)"/>
     <use xlink:href="#DejaVuSans-Bold-65" transform="translate(1080.664062 0)"/>
     <use xlink:href="#DejaVuSans-Bold-72" transform="translate(1148.486328 0)"/>
     <use xlink:href="#DejaVuSans-Bold-2f" transform="translate(1197.802734 0)"/>
     <use xlink:href="#DejaVuSans-Bold-70" transform="translate(1234.326172 0)"/>
     <use xlink:href="#DejaVuSans-Bold-6c" transform="translate(1305.908203 0)"/>
     <use xlink:href="#DejaVuSans-Bold-61" transform="translate(1340.185547 0)"/>
     <use xlink:href="#DejaVuSans-Bold-6e" transform="translate(1407.666016 0)"/>
     <use xlink:href="#DejaVuSans-Bold-29" transform="translate(1478.857422 0)"/>
    </g>
    <!-- + dense features -->
    <g style="fill: #1f1f1f" transform="translate(573.861375 148.994158) scale(0.1 -0.1)">
     <use xlink:href="#DejaVuSans-Bold-2b"/>
     <use xlink:href="#DejaVuSans-Bold-20" transform="translate(83.789062 0)"/>
     <use xlink:href="#DejaVuSans-Bold-64" transform="translate(118.603516 0)"/>
     <use xlink:href="#DejaVuSans-Bold-65" transform="translate(190.185547 0)"/>
     <use xlink:href="#DejaVuSans-Bold-6e" transform="translate(258.007812 0)"/>
     <use xlink:href="#DejaVuSans-Bold-73" transform="translate(329.199219 0)"/>
     <use xlink:href="#DejaVuSans-Bold-65" transform="translate(388.720703 0)"/>
     <use xlink:href="#DejaVuSans-Bold-20" transform="translate(456.542969 0)"/>
     <use xlink:href="#DejaVuSans-Bold-66" transform="translate(491.357422 0)"/>
     <use xlink:href="#DejaVuSans-Bold-65" transform="translate(534.863281 0)"/>
     <use xlink:href="#DejaVuSans-Bold-61" transform="translate(602.685547 0)"/>
     <use xlink:href="#DejaVuSans-Bold-74" transform="translate(670.166016 0)"/>
     <use xlink:href="#DejaVuSans-Bold-75" transform="translate(717.96875 0)"/>
     <use xlink:href="#DejaVuSans-Bold-72" transform="translate(789.160156 0)"/>
     <use xlink:href="#DejaVuSans-Bold-65" transform="translate(838.476562 0)"/>
     <use xlink:href="#DejaVuSans-Bold-73" transform="translate(906.298828 0)"/>
    </g>
   </g>
   <g id="text_10">
    <!-- MLP layers -->
    <g style="fill: #1f1f1f" transform="translate(591.560594 184.071036) scale(0.1 -0.1)">
     <defs>
      <path id="DejaVuSans-Bold-50" d="M 588 4666 
L 2584 4666 
Q 3475 4666 3951 4270 
Q 4428 3875 4428 3144 
Q 4428 2409 3951 2014 
Q 3475 1619 2584 1619 
L 1791 1619 
L 1791 0 
L 588 0 
L 588 4666 
z
M 1791 3794 
L 1791 2491 
L 2456 2491 
Q 2806 2491 2997 2661 
Q 3188 2831 3188 3144 
Q 3188 3456 2997 3625 
Q 2806 3794 2456 3794 
L 1791 3794 
z
" transform="scale(0.015625)"/>
     </defs>
     <use xlink:href="#DejaVuSans-Bold-4d"/>
     <use xlink:href="#DejaVuSans-Bold-4c" transform="translate(99.511719 0)"/>
     <use xlink:href="#DejaVuSans-Bold-50" transform="translate(163.232422 0)"/>
     <use xlink:href="#DejaVuSans-Bold-20" transform="translate(236.523438 0)"/>
     <use xlink:href="#DejaVuSans-Bold-6c" transform="translate(271.337891 0)"/>
     <use xlink:href="#DejaVuSans-Bold-61" transform="translate(305.615234 0)"/>
     <use xlink:href="#DejaVuSans-Bold-79" transform="translate(369.970703 0)"/>
     <use xlink:href="#DejaVuSans-Bold-65" transform="translate(435.15625 0)"/>
     <use xlink:href="#DejaVuSans-Bold-72" transform="translate(502.978516 0)"/>
     <use xlink:href="#DejaVuSans-Bold-73" transform="translate(552.294922 0)"/>
    </g>
    <!-- (ReLU + dropout) -->
    <g style="fill: #1f1f1f" transform="translate(573.161375 195.346973) scale(0.1 -0.1)">
     <defs>
      <path id="DejaVuSans-Bold-52" d="M 2297 2597 
Q 2675 2597 2839 2737 
Q 3003 2878 3003 3200 
Q 3003 3519 2839 3656 
Q 2675 3794 2297 3794 
L 1791 3794 
L 1791 2597 
L 2297 2597 
z
M 1791 1766 
L 1791 0 
L 588 0 
L 588 4666 
L 2425 4666 
Q 3347 4666 3776 4356 
Q 4206 4047 4206 3378 
Q 4206 2916 3982 2619 
Q 3759 2322 3309 2181 
Q 3556 2125 3751 1926 
Q 3947 1728 4147 1325 
L 4800 0 
L 3519 0 
L 2950 1159 
Q 2778 1509 2601 1637 
Q 2425 1766 2131 1766 
L 1791 1766 
z
" transform="scale(0.015625)"/>
      <path id="DejaVuSans-Bold-55" d="M 588 4666 
L 1791 4666 
L 1791 1869 
Q 1791 1291 1980 1042 
Q 2169 794 2597 794 
Q 3028 794 3217 1042 
Q 3406 1291 3406 1869 
L 3406 4666 
L 4609 4666 
L 4609 1869 
Q 4609 878 4112 393 
Q 3616 -91 2597 -91 
Q 1581 -91 1084 393 
Q 588 878 588 1869 
L 588 4666 
z
" transform="scale(0.015625)"/>
     </defs>
     <use xlink:href="#DejaVuSans-Bold-28"/>
     <use xlink:href="#DejaVuSans-Bold-52" transform="translate(45.703125 0)"/>
     <use xlink:href="#DejaVuSans-Bold-65" transform="translate(122.705078 0)"/>
     <use xlink:href="#DejaVuSans-Bold-4c" transform="translate(190.527344 0)"/>
     <use xlink:href="#DejaVuSans-Bold-55" transform="translate(250.623047 0)"/>
     <use xlink:href="#DejaVuSans-Bold-20" transform="translate(331.824219 0)"/>
     <use xlink:href="#DejaVuSans-Bold-2b" transform="translate(366.638672 0)"/>
     <use xlink:href="#DejaVuSans-Bold-20" transform="translate(450.427734 0)"/>
     <use xlink:href="#DejaVuSans-Bold-64" transform="translate(485.242188 0)"/>
     <use xlink:href="#DejaVuSans-Bold-72" transform="translate(556.824219 0)"/>
     <use xlink:href="#DejaVuSans-Bold-6f" transform="translate(606.140625 0)"/>
     <use xlink:href="#DejaVuSans-Bold-70" transform="translate(674.841797 0)"/>
     <use xlink:href="#DejaVuSans-Bold-6f" transform="translate(746.423828 0)"/>
     <use xlink:href="#DejaVuSans-Bold-75" transform="translate(815.125 0)"/>
     <use xlink:href="#DejaVuSans-Bold-74" transform="translate(886.316406 0)"/>
     <use xlink:href="#DejaVuSans-Bold-29" transform="translate(934.119141 0)"/>
    </g>
   </g>
   <g id="text_11">
    <!-- Outputs -->
    <g style="fill: #1f1f1f" transform="translate(599.448094 230.462914) scale(0.1 -0.1)">
     <use xlink:href="#DejaVuSans-Bold-4f"/>
     <use xlink:href="#DejaVuSans-Bold-75" transform="translate(85.009766 0)"/>
     <use xlink:href="#DejaVuSans-Bold-74" transform="translate(156.201172 0)"/>
     <use xlink:href="#DejaVuSans-Bold-70" transform="translate(204.003906 0)"/>
     <use xlink:href="#DejaVuSans-Bold-75" transform="translate(275.585938 0)"/>
     <use xlink:href="#DejaVuSans-Bold-74" transform="translate(346.777344 0)"/>
     <use xlink:href="#DejaVuSans-Bold-73" transform="translate(394.580078 0)"/>
    </g>
    <!-- p(onset) and/or severity -->
    <g style="fill: #1f1f1f" transform="translate(553.68325 241.660726) scale(0.1 -0.1)">
     <use xlink:href="#DejaVuSans-Bold-70"/>
     <use xlink:href="#DejaVuSans-Bold-28" transform="translate(71.582031 0)"/>
     <use xlink:href="#DejaVuSans-Bold-6f" transform="translate(117.285156 0)"/>
     <use xlink:href="#DejaVuSans-Bold-6e" transform="translate(185.986328 0)"/>
     <use xlink:href="#DejaVuSans-Bold-73" transform="translate(257.177734 0)"/>
     <use xlink:href="#DejaVuSans-Bold-65" transform="translate(316.699219 0)"/>
     <use xlink:href="#DejaVuSans-Bold-74" transform="translate(384.521484 0)"/>
     <use xlink:href="#DejaVuSans-Bold-29" transform="translate(432.324219 0)"/>
     <use xlink:href="#DejaVuSans-Bold-20" transform="translate(478.027344 0)"/>
     <use xlink:href="#DejaVuSans-Bold-61" transform="translate(512.841797 0)"/>
     <use xlink:href="#DejaVuSans-Bold-6e" transform="translate(580.322266 0)"/>
     <use xlink:href="#DejaVuSans-Bold-64" transform="translate(651.513672 0)"/>
     <use xlink:href="#DejaVuSans-Bold-2f" transform="translate(723.095703 0)"/>
     <use xlink:href="#DejaVuSans-Bold-6f" transform="translate(759.619141 0)"/>
     <use xlink:href="#DejaVuSans-Bold-72" transform="translate(828.320312 0)"/>
     <use xlink:href="#DejaVuSans-Bold-20" transform="translate(877.636719 0)"/>
     <use xlink:href="#DejaVuSans-Bold-73" transform="translate(912.451172 0)"/>
     <use xlink:href="#DejaVuSans-Bold-65" transform="translate(971.972656 0)"/>
     <use xlink:href="#DejaVuSans-Bold-76" transform="translate(1039.794922 0)"/>
     <use xlink:href="#DejaVuSans-Bold-65" transform="translate(1104.980469 0)"/>
     <use xlink:href="#DejaVuSans-Bold-72" transform="translate(1172.802734 0)"/>
     <use xlink:href="#DejaVuSans-Bold-69" transform="translate(1222.119141 0)"/>
     <use xlink:href="#DejaVuSans-Bold-74" transform="translate(1256.396484 0)"/>
     <use xlink:href="#DejaVuSans-Bold-79" transform="translate(1304.199219 0)"/>
    </g>
    <!-- (with scale controls) -->
    <g style="fill: #1f1f1f" transform="translate(564.459031 252.936664) scale(0.1 -0.1)">
     <defs>
      <path id="DejaVuSans-Bold-77" d="M 225 3500 
L 1313 3500 
L 1900 1088 
L 2491 3500 
L 3425 3500 
L 4013 1113 
L 4603 3500 
L 5691 3500 
L 4769 0 
L 3547 0 
L 2956 2406 
L 2369 0 
L 1147 0 
L 225 3500 
z
" transform="scale(0.015625)"/>
     </defs>
     <use xlink:href="#DejaVuSans-Bold-28"/>
     <use xlink:href="#DejaVuSans-Bold-77" transform="translate(45.703125 0)"/>
     <use xlink:href="#DejaVuSans-Bold-69" transform="translate(138.085938 0)"/>
     <use xlink:href="#DejaVuSans-Bold-74" transform="translate(172.363281 0)"/>
     <use xlink:href="#DejaVuSans-Bold-68" transform="translate(220.166016 0)"/>
     <use xlink:href="#DejaVuSans-Bold-20" transform="translate(291.357422 0)"/>
     <use xlink:href="#DejaVuSans-Bold-73" transform="translate(326.171875 0)"/>
     <use xlink:href="#DejaVuSans-Bold-63" transform="translate(385.693359 0)"/>
     <use xlink:href="#DejaVuSans-Bold-61" transform="translate(444.970703 0)"/>
     <use xlink:href="#DejaVuSans-Bold-6c" transform="translate(512.451172 0)"/>
     <use xlink:href="#DejaVuSans-Bold-65" transform="translate(546.728516 0)"/>
     <use xlink:href="#DejaVuSans-Bold-20" transform="translate(614.550781 0)"/>
     <use xlink:href="#DejaVuSans-Bold-63" transform="translate(649.365234 0)"/>
     <use xlink:href="#DejaVuSans-Bold-6f" transform="translate(708.642578 0)"/>
     <use xlink:href="#DejaVuSans-Bold-6e" transform="translate(777.34375 0)"/>
     <use xlink:href="#DejaVuSans-Bold-74" transform="translate(848.535156 0)"/>
     <use xlink:href="#DejaVuSans-Bold-72" transform="translate(896.337891 0)"/>
     <use xlink:href="#DejaVuSans-Bold-6f" transform="translate(945.654297 0)"/>
     <use xlink:href="#DejaVuSans-Bold-6c" transform="translate(1014.355469 0)"/>
     <use xlink:href="#DejaVuSans-Bold-73" transform="translate(1048.632812 0)"/>
     <use xlink:href="#DejaVuSans-Bold-29" transform="translate(1108.154297 0)"/>
    </g>
   </g>
   <g id="patch_13">
    <path d="M 622.152 101.868666 
Q 622.152 108.967017 622.152 114.052907 
" style="fill: none; stroke: #4f4f4f; stroke-width: 1.8; stroke-linecap: round"/>
    <path d="M 625.752 106.852907 
L 622.152 114.052907 
L 618.552 106.852907 
z
" style="fill: #4f4f4f; stroke: #4f4f4f; stroke-width: 1.8; stroke-linecap: round"/>
   </g>
   <g id="patch_14">
    <path d="M 622.152 153.85945 
Q 622.152 160.957801 622.152 166.043691 
" style="fill: none; stroke: #4f4f4f; stroke-width: 1.8; stroke-linecap: round"/>
    <path d="M 625.752 158.843691 
L 622.152 166.043691 
L 618.552 158.843691 
z
" style="fill: #4f4f4f; stroke: #4f4f4f; stroke-width: 1.8; stroke-linecap: round"/>
   </g>
   <g id="patch_15">
    <path d="M 622.152 205.850234 
Q 622.152 212.948585 622.152 218.034475 
" style="fill: none; stroke: #4f4f4f; stroke-width: 1.8; stroke-linecap: round"/>
    <path d="M 625.752 210.834475 
L 622.152 218.034475 
L 618.552 210.834475 
z
" style="fill: #4f4f4f; stroke: #4f4f4f; stroke-width: 1.8; stroke-linecap: round"/>
   </g>
   <g id="text_12">
    <!-- Strengths: interactions, high-cardinality effects -->
    <g style="fill: #333333" transform="translate(532.904766 274.078154) scale(0.09 -0.09)">
     <defs>
      <path id="DejaVuSans-2d" d="M 313 2009 
L 1997 2009 
L 1997 1497 
L 313 1497 
L 313 2009 
z
" transform="scale(0.015625)"/>
      <path id="DejaVuSans-66" d="M 2375 4863 
L 2375 4384 
L 1825 4384 
Q 1516 4384 1395 4259 
Q 1275 4134 1275 3809 
L 1275 3500 
L 2222 3500 
L 2222 3053 
L 1275 3053 
L 1275 0 
L 697 0 
L 697 3053 
L 147 3053 
L 147 3500 
L 697 3500 
L 697 3744 
Q 697 4328 969 4595 
Q 1241 4863 1831 4863 
L 2375 4863 
z
" transform="scale(0.015625)"/>
     </defs>
     <use xlink:href="#DejaVuSans-53"/>
     <use xlink:href="#DejaVuSans-74" transform="translate(63.476562 0)"/>
     <use xlink:href="#DejaVuSans-72" transform="translate(102.685547 0)"/>
     <use xlink:href="#DejaVuSans-65" transform="translate(141.548828 0)"/>
     <use xlink:href="#DejaVuSans-6e" transform="translate(203.072266 0)"/>
     <use xlink:href="#DejaVuSans-67" transform="translate(266.451172 0)"/>
     <use xlink:href="#DejaVuSans-74" transform="translate(329.927734 0)"/>
     <use xlink:href="#DejaVuSans-68" transform="translate(369.136719 0)"/>
     <use xlink:href="#DejaVuSans-73" transform="translate(432.515625 0)"/>
     <use xlink:href="#DejaVuSans-3a" transform="translate(484.615234 0)"/>
     <use xlink:href="#DejaVuSans-20" transform="translate(518.306641 0)"/>
     <use xlink:href="#DejaVuSans-69" transform="translate(550.09375 0)"/>
     <use xlink:href="#DejaVuSans-6e" transform="translate(577.876953 0)"/>
     <use xlink:href="#DejaVuSans-74" transform="translate(641.255859 0)"/>
     <use xlink:href="#DejaVuSans-65" transform="translate(680.464844 0)"/>
     <use xlink:href="#DejaVuSans-72" transform="translate(741.988281 0)"/>
     <use xlink:href="#DejaVuSans-61" transform="translate(783.101562 0)"/>
     <use xlink:href="#DejaVuSans-63" transform="translate(844.380859 0)"/>
     <use xlink:href="#DejaVuSans-74" transform="translate(899.361328 0)"/>
     <use xlink:href="#DejaVuSans-69" transform="translate(938.570312 0)"/>
     <use xlink:href="#DejaVuSans-6f" transform="translate(966.353516 0)"/>
     <use xlink:href="#DejaVuSans-6e" transform="translate(1027.535156 0)"/>
     <use xlink:href="#DejaVuSans-73" transform="translate(1090.914062 0)"/>
     <use xlink:href="#DejaVuSans-2c" transform="translate(1143.013672 0)"/>
     <use xlink:href="#DejaVuSans-20" transform="translate(1174.800781 0)"/>
     <use xlink:href="#DejaVuSans-68" transform="translate(1206.587891 0)"/>
     <use xlink:href="#DejaVuSans-69" transform="translate(1269.966797 0)"/>
     <use xlink:href="#DejaVuSans-67" transform="translate(1297.75 0)"/>
     <use xlink:href="#DejaVuSans-68" transform="translate(1361.226562 0)"/>
     <use xlink:href="#DejaVuSans-2d" transform="translate(1424.605469 0)"/>
     <use xlink:href="#DejaVuSans-63" transform="translate(1460.689453 0)"/>
     <use xlink:href="#DejaVuSans-61" transform="translate(1515.669922 0)"/>
     <use xlink:href="#DejaVuSans-72" transform="translate(1576.949219 0)"/>
     <use xlink:href="#DejaVuSans-64" transform="translate(1616.3125 0)"/>
     <use xlink:href="#DejaVuSans-69" transform="translate(1679.789062 0)"/>
     <use xlink:href="#DejaVuSans-6e" transform="translate(1707.572266 0)"/>
     <use xlink:href="#DejaVuSans-61" transform="translate(1770.951172 0)"/>
     <use xlink:href="#DejaVuSans-6c" transform="translate(1832.230469 0)"/>
     <use xlink:href="#DejaVuSans-69" transform="translate(1860.013672 0)"/>
     <use xlink:href="#DejaVuSans-74" transform="translate(1887.796875 0)"/>
     <use xlink:href="#DejaVuSans-79" transform="translate(1927.005859 0)"/>
     <use xlink:href="#DejaVuSans-20" transform="translate(1986.185547 0)"/>
     <use xlink:href="#DejaVuSans-65" transform="translate(2017.972656 0)"/>
     <use xlink:href="#DejaVuSans-66" transform="translate(2079.496094 0)"/>
     <use xlink:href="#DejaVuSans-66" transform="translate(2114.701172 0)"/>
     <use xlink:href="#DejaVuSans-65" transform="translate(2149.90625 0)"/>
     <use xlink:href="#DejaVuSans-63" transform="translate(2211.429688 0)"/>
     <use xlink:href="#DejaVuSans-74" transform="translate(2266.410156 0)"/>
     <use xlink:href="#DejaVuSans-73" transform="translate(2305.619141 0)"/>
    </g>
    <!-- Governance: calibration + stability + scale discipline -->
    <g style="fill: #333333" transform="translate(519.747187 284.156185) scale(0.09 -0.09)">
     <defs>
      <path id="DejaVuSans-47" d="M 3809 666 
L 3809 1919 
L 2778 1919 
L 2778 2438 
L 4434 2438 
L 4434 434 
Q 4069 175 3628 42 
Q 3188 -91 2688 -91 
Q 1594 -91 976 548 
Q 359 1188 359 2328 
Q 359 3472 976 4111 
Q 1594 4750 2688 4750 
Q 3144 4750 3555 4637 
Q 3966 4525 4313 4306 
L 4313 3634 
Q 3963 3931 3569 4081 
Q 3175 4231 2741 4231 
Q 1884 4231 1454 3753 
Q 1025 3275 1025 2328 
Q 1025 1384 1454 906 
Q 1884 428 2741 428 
Q 3075 428 3337 486 
Q 3600 544 3809 666 
z
" transform="scale(0.015625)"/>
     </defs>
     <use xlink:href="#DejaVuSans-47"/>
     <use xlink:href="#DejaVuSans-6f" transform="translate(77.490234 0)"/>
     <use xlink:href="#DejaVuSans-76" transform="translate(138.671875 0)"/>
     <use xlink:href="#DejaVuSans-65" transform="translate(197.851562 0)"/>
     <use xlink:href="#DejaVuSans-72" transform="translate(259.375 0)"/>
     <use xlink:href="#DejaVuSans-6e" transform="translate(298.738281 0)"/>
     <use xlink:href="#DejaVuSans-61" transform="translate(362.117188 0)"/>
     <use xlink:href="#DejaVuSans-6e" transform="translate(423.396484 0)"/>
     <use xlink:href="#DejaVuSans-63" transform="translate(486.775391 0)"/>
     <use xlink:href="#DejaVuSans-65" transform="translate(541.755859 0)"/>
     <use xlink:href="#DejaVuSans-3a" transform="translate(603.279297 0)"/>
     <use xlink:href="#DejaVuSans-20" transform="translate(636.970703 0)"/>
     <use xlink:href="#DejaVuSans-63" transform="translate(668.757812 0)"/>
     <use xlink:href="#DejaVuSans-61" transform="translate(723.738281 0)"/>
     <use xlink:href="#DejaVuSans-6c" transform="translate(785.017578 0)"/>
     <use xlink:href="#DejaVuSans-69" transform="translate(812.800781 0)"/>
     <use xlink:href="#DejaVuSans-62" transform="translate(840.583984 0)"/>
     <use xlink:href="#DejaVuSans-72" transform="translate(904.060547 0)"/>
     <use xlink:href="#DejaVuSans-61" transform="translate(945.173828 0)"/>
     <use xlink:href="#DejaVuSans-74" transform="translate(1006.453125 0)"/>
     <use xlink:href="#DejaVuSans-69" transform="translate(1045.662109 0)"/>
     <use xlink:href="#DejaVuSans-6f" transform="translate(1073.445312 0)"/>
     <use xlink:href="#DejaVuSans-6e" transform="translate(1134.626953 0)"/>
     <use xlink:href="#DejaVuSans-20" transform="translate(1198.005859 0)"/>
     <use xlink:href="#DejaVuSans-2b" transform="translate(1229.792969 0)"/>
     <use xlink:href="#DejaVuSans-20" transform="translate(1313.582031 0)"/>
     <use xlink:href="#DejaVuSans-73" transform="translate(1345.369141 0)"/>
     <use xlink:href="#DejaVuSans-74" transform="translate(1397.46875 0)"/>
     <use xlink:href="#DejaVuSans-61" transform="translate(1436.677734 0)"/>
     <use xlink:href="#DejaVuSans-62" transform="translate(1497.957031 0)"/>
     <use xlink:href="#DejaVuSans-69" transform="translate(1561.433594 0)"/>
     <use xlink:href="#DejaVuSans-6c" transform="translate(1589.216797 0)"/>
     <use xlink:href="#DejaVuSans-69" transform="translate(1617 0)"/>
     <use xlink:href="#DejaVuSans-74" transform="translate(1644.783203 0)"/>
     <use xlink:href="#DejaVuSans-79" transform="translate(1683.992188 0)"/>
     <use xlink:href="#DejaVuSans-20" transform="translate(1743.171875 0)"/>
     <use xlink:href="#DejaVuSans-2b" transform="translate(1774.958984 0)"/>
     <use xlink:href="#DejaVuSans-20" transform="translate(1858.748047 0)"/>
     <use xlink:href="#DejaVuSans-73" transform="translate(1890.535156 0)"/>
     <use xlink:href="#DejaVuSans-63" transform="translate(1942.634766 0)"/>
     <use xlink:href="#DejaVuSans-61" transform="translate(1997.615234 0)"/>
     <use xlink:href="#DejaVuSans-6c" transform="translate(2058.894531 0)"/>
     <use xlink:href="#DejaVuSans-65" transform="translate(2086.677734 0)"/>
     <use xlink:href="#DejaVuSans-20" transform="translate(2148.201172 0)"/>
     <use xlink:href="#DejaVuSans-64" transform="translate(2179.988281 0)"/>
     <use xlink:href="#DejaVuSans-69" transform="translate(2243.464844 0)"/>
     <use xlink:href="#DejaVuSans-73" transform="translate(2271.248047 0)"/>
     <use xlink:href="#DejaVuSans-63" transform="translate(2323.347656 0)"/>
     <use xlink:href="#DejaVuSans-69" transform="translate(2378.328125 0)"/>
     <use xlink:href="#DejaVuSans-70" transform="translate(2406.111328 0)"/>
     <use xlink:href="#DejaVuSans-6c" transform="translate(2469.587891 0)"/>
     <use xlink:href="#DejaVuSans-69" transform="translate(2497.371094 0)"/>
     <use xlink:href="#DejaVuSans-6e" transform="translate(2525.154297 0)"/>
     <use xlink:href="#DejaVuSans-65" transform="translate(2588.533203 0)"/>
    </g>
   </g>
   <g id="text_13">
    <!-- Model architecture comparison: GLM vs FFNN (frequency–severity IDI) -->
    <g transform="translate(170.409922 17.077969) scale(0.13 -0.13)">
     <defs>
      <path id="DejaVuSans-Bold-3a" d="M 716 3500 
L 1844 3500 
L 1844 2291 
L 716 2291 
L 716 3500 
z
M 716 1209 
L 1844 1209 
L 1844 0 
L 716 0 
L 716 1209 
z
" transform="scale(0.015625)"/>
      <path id="DejaVuSans-Bold-71" d="M 2181 2772 
Q 1825 2772 1636 2509 
Q 1447 2247 1447 1747 
Q 1447 1247 1636 984 
Q 1825 722 2181 722 
Q 2541 722 2730 984 
Q 2919 1247 2919 1747 
Q 2919 2247 2730 2509 
Q 2541 2772 2181 2772 
z
M 2919 506 
Q 2688 197 2409 53 
Q 2131 -91 1766 -91 
Q 1119 -91 703 423 
Q 288 938 288 1747 
Q 288 2556 703 3067 
Q 1119 3578 1766 3578 
Q 2131 3578 2409 3434 
Q 2688 3291 2919 2981 
L 2919 3500 
L 4044 3500 
L 4044 -1331 
L 2919 -1331 
L 2919 506 
z
" transform="scale(0.015625)"/>
      <path id="DejaVuSans-Bold-2013" d="M 344 2156 
L 2856 2156 
L 2856 1350 
L 344 1350 
L 344 2156 
z
" transform="scale(0.015625)"/>
     </defs>
     <use xlink:href="#DejaVuSans-Bold-4d"/>
     <use xlink:href="#DejaVuSans-Bold-6f" transform="translate(99.511719 0)"/>
     <use xlink:href="#DejaVuSans-Bold-64" transform="translate(168.212891 0)"/>
     <use xlink:href="#DejaVuSans-Bold-65" transform="translate(239.794922 0)"/>
     <use xlink:href="#DejaVuSans-Bold-6c" transform="translate(307.617188 0)"/>
     <use xlink:href="#DejaVuSans-Bold-20" transform="translate(341.894531 0)"/>
     <use xlink:href="#DejaVuSans-Bold-61" transform="translate(376.708984 0)"/>
     <use xlink:href="#DejaVuSans-Bold-72" transform="translate(444.189453 0)"/>
     <use xlink:href="#DejaVuSans-Bold-63" transform="translate(493.505859 0)"/>
     <use xlink:href="#DejaVuSans-Bold-68" transform="translate(552.783203 0)"/>
     <use xlink:href="#DejaVuSans-Bold-69" transform="translate(623.974609 0)"/>
     <use xlink:href="#DejaVuSans-Bold-74" transform="translate(658.251953 0)"/>
     <use xlink:href="#DejaVuSans-Bold-65" transform="translate(706.054688 0)"/>
     <use xlink:href="#DejaVuSans-Bold-63" transform="translate(773.876953 0)"/>
     <use xlink:href="#DejaVuSans-Bold-74" transform="translate(833.154297 0)"/>
     <use xlink:href="#DejaVuSans-Bold-75" transform="translate(880.957031 0)"/>
     <use xlink:href="#DejaVuSans-Bold-72" transform="translate(952.148438 0)"/>
     <use xlink:href="#DejaVuSans-Bold-65" transform="translate(1001.464844 0)"/>
     <use xlink:href="#DejaVuSans-Bold-20" transform="translate(1069.287109 0)"/>
     <use xlink:href="#DejaVuSans-Bold-63" transform="translate(1104.101562 0)"/>
     <use xlink:href="#DejaVuSans-Bold-6f" transform="translate(1163.378906 0)"/>
     <use xlink:href="#DejaVuSans-Bold-6d" transform="translate(1232.080078 0)"/>
     <use xlink:href="#DejaVuSans-Bold-70" transform="translate(1336.279297 0)"/>
     <use xlink:href="#DejaVuSans-Bold-61" transform="translate(1407.861328 0)"/>
     <use xlink:href="#DejaVuSans-Bold-72" transform="translate(1475.341797 0)"/>
     <use xlink:href="#DejaVuSans-Bold-69" transform="translate(1524.658203 0)"/>
     <use xlink:href="#DejaVuSans-Bold-73" transform="translate(1558.935547 0)"/>
     <use xlink:href="#DejaVuSans-Bold-6f" transform="translate(1618.457031 0)"/>
     <use xlink:href="#DejaVuSans-Bold-6e" transform="translate(1687.158203 0)"/>
     <use xlink:href="#DejaVuSans-Bold-3a" transform="translate(1758.349609 0)"/>
     <use xlink:href="#DejaVuSans-Bold-20" transform="translate(1798.339844 0)"/>
     <use xlink:href="#DejaVuSans-Bold-47" transform="translate(1833.154297 0)"/>
     <use xlink:href="#DejaVuSans-Bold-4c" transform="translate(1915.234375 0)"/>
     <use xlink:href="#DejaVuSans-Bold-4d" transform="translate(1978.955078 0)"/>
     <use xlink:href="#DejaVuSans-Bold-20" transform="translate(2078.466797 0)"/>
     <use xlink:href="#DejaVuSans-Bold-76" transform="translate(2113.28125 0)"/>
     <use xlink:href="#DejaVuSans-Bold-73" transform="translate(2178.466797 0)"/>
     <use xlink:href="#DejaVuSans-Bold-20" transform="translate(2237.988281 0)"/>
     <use xlink:href="#DejaVuSans-Bold-46" transform="translate(2272.802734 0)"/>
     <use xlink:href="#DejaVuSans-Bold-46" transform="translate(2341.113281 0)"/>
     <use xlink:href="#DejaVuSans-Bold-4e" transform="translate(2409.423828 0)"/>
     <use xlink:href="#DejaVuSans-Bold-4e" transform="translate(2493.115234 0)"/>
     <use xlink:href="#DejaVuSans-Bold-20" transform="translate(2576.806641 0)"/>
     <use xlink:href="#DejaVuSans-Bold-28" transform="translate(2611.621094 0)"/>
     <use xlink:href="#DejaVuSans-Bold-66" transform="translate(2657.324219 0)"/>
     <use xlink:href="#DejaVuSans-Bold-72" transform="translate(2700.830078 0)"/>
     <use xlink:href="#DejaVuSans-Bold-65" transform="translate(2750.146484 0)"/>
     <use xlink:href="#DejaVuSans-Bold-71" transform="translate(2817.96875 0)"/>
     <use xlink:href="#DejaVuSans-Bold-75" transform="translate(2889.550781 0)"/>
     <use xlink:href="#DejaVuSans-Bold-65" transform="translate(2960.742188 0)"/>
     <use xlink:href="#DejaVuSans-Bold-6e" transform="translate(3028.564453 0)"/>
     <use xlink:href="#DejaVuSans-Bold-63" transform="translate(3099.755859 0)"/>
     <use xlink:href="#DejaVuSans-Bold-79" transform="translate(3159.033203 0)"/>
     <use xlink:href="#DejaVuSans-Bold-2013" transform="translate(3224.21875 0)"/>
     <use xlink:href="#DejaVuSans-Bold-73" transform="translate(3274.21875 0)"/>
     <use xlink:href="#DejaVuSans-Bold-65" transform="translate(3333.740234 0)"/>
     <use xlink:href="#DejaVuSans-Bold-76" transform="translate(3401.5625 0)"/>
     <use xlink:href="#DejaVuSans-Bold-65" transform="translate(3466.748047 0)"/>
     <use xlink:href="#DejaVuSans-Bold-72" transform="translate(3534.570312 0)"/>
     <use xlink:href="#DejaVuSans-Bold-69" transform="translate(3583.886719 0)"/>
     <use xlink:href="#DejaVuSans-Bold-74" transform="translate(3618.164062 0)"/>
     <use xlink:href="#DejaVuSans-Bold-79" transform="translate(3665.966797 0)"/>
     <use xlink:href="#DejaVuSans-Bold-20" transform="translate(3731.152344 0)"/>
     <use xlink:href="#DejaVuSans-Bold-49" transform="translate(3765.966797 0)"/>
     <use xlink:href="#DejaVuSans-Bold-44" transform="translate(3803.173828 0)"/>
     <use xlink:href="#DejaVuSans-Bold-49" transform="translate(3886.181641 0)"/>
     <use xlink:href="#DejaVuSans-Bold-29" transform="translate(3923.388672 0)"/>
    </g>
   </g>
  </g>
 </g>
 <defs>
  <clipPath id="pb83dbe38c8">
   <rect x="7.2" y="27.077969" width="842.4" height="259.95392"/>
  </clipPath>
 </defs>
</svg>
